<svg id="Layer_1" data-name="Layer 1" xmlns="http://www.w3.org/2000/svg" viewBox="0 0 1828.7 740"><defs><style>.cls-1{fill:#fff;}.cls-2{isolation:isolate;}.cls-3{fill:#6f9161;}</style></defs><title>Rapido-bikes-8-greenfallWhite</title><g id="terrain"><path class="cls-1" d="M929.5,78l-143,182L895.6,398.3,835.4,442C771.4,361.9,666,223.6,666,223.6L440.2,514.8h828.1Z" transform="translate(-7.5 -53.4)"/></g><g class="cls-2"><path class="cls-1" d="M185.1,567.3V788.6H134.8l-.1-149.4-20,149.4H79l-21.1-146-.1,146H7.5V567.3H82c2.2,13.3,4.5,29,6.8,47.1L97,670.7l13.2-103.4Z" transform="translate(-7.5 -53.4)"/><path class="cls-1" d="M339.7,696.9c0,22.2-.5,38-1.6,47.2a52.64,52.64,0,0,1-9.8,25.4c-5.5,7.7-13,13.5-22.4,17.6s-20.3,6.2-32.8,6.2c-11.8,0-22.5-1.9-31.9-5.8a53.65,53.65,0,0,1-22.8-17.4,52.83,52.83,0,0,1-10.3-25.3c-1.1-9.1-1.6-25.1-1.6-47.9V659c0-22.2.5-38,1.6-47.2a53,53,0,0,1,9.8-25.4c5.5-7.7,13-13.5,22.4-17.6s20.3-6.2,32.8-6.2c11.8,0,22.5,1.9,31.9,5.8a53.65,53.65,0,0,1,22.8,17.4,52.83,52.83,0,0,1,10.3,25.3c1.1,9.1,1.6,25.1,1.6,47.9Zm-57.5-72.7c0-10.3-.6-16.9-1.7-19.8s-3.5-4.3-7-4.3a7.93,7.93,0,0,0-6.9,3.5c-1.6,2.3-2.4,9.2-2.4,20.6V727.6c0,12.9.5,20.8,1.6,23.8s3.5,4.5,7.3,4.5,6.4-1.7,7.5-5.2,1.6-11.7,1.6-24.7Z" transform="translate(-7.5 -53.4)"/><path class="cls-1" d="M492,567.3V715.2c0,16.8-.5,28.6-1.6,35.3s-4.3,13.8-9.7,20.9a50.38,50.38,0,0,1-21.3,16.3c-8.8,3.7-19.2,5.5-31.1,5.5-13.2,0-24.9-2.2-35-6.6s-17.7-10.1-22.7-17.1a47.21,47.21,0,0,1-8.9-22.2c-.9-7.8-1.4-24.2-1.4-49.2v-131h57.6v166c0,9.7.5,15.8,1.6,18.5s3.2,4,6.4,4c3.6,0,6-1.5,7-4.4s1.6-10,1.6-21V567.3Z" transform="translate(-7.5 -53.4)"/><path class="cls-1" d="M642.8,567.3V788.6H592.4L562.4,688V788.6H514.3V567.3h48.1L594.7,667V567.3Z" transform="translate(-7.5 -53.4)"/></g><g class="cls-2"><path class="cls-1" d="M781.9,567.3v44.3H747.7V788.7H690.1V611.6h-34V567.3Z" transform="translate(-7.5 -53.4)"/></g><g class="cls-2"><path class="cls-1" d="M883.3,567.3l32.9,221.3H857.4l-3.1-39.8H833.7l-3.5,39.8H770.7l29.4-221.3ZM852.8,709.6q-4.35-37.65-8.8-93c-5.9,42.4-9.5,73.4-11,93Z" transform="translate(-7.5 -53.4)"/><path class="cls-1" d="M983.5,567.3V788.6H926V567.3Z" transform="translate(-7.5 -53.4)"/><path class="cls-1" d="M1135.1,567.3V788.6h-50.4L1054.8,688V788.6h-48.1V567.3h48.1L1087,667V567.3Z" transform="translate(-7.5 -53.4)"/><path class="cls-1" d="M1207.6,567.3H1265c18.1,0,31.9,1.4,41.2,4.2a40.65,40.65,0,0,1,22.6,17.1c5.7,8.6,8.6,22.5,8.6,41.6,0,12.9-2,22-6.1,27.1s-12.1,9-24,11.7c13.3,3,22.3,8,27.1,15s7.1,17.7,7.1,32.1v20.5c0,15-1.7,26-5.1,33.2a28,28,0,0,1-16.3,14.8c-7.5,2.6-22.8,4-45.9,4h-66.6V567.3Zm57.6,37.9v49.2c2.5-.1,4.4-.1,5.7-.1,5.7,0,9.2-1.4,10.8-4.2s2.3-10.7,2.3-23.9c0-6.9-.6-11.8-1.9-14.6s-2.9-4.5-5-5.3C1275.1,605.7,1271.1,605.3,1265.2,605.2Zm0,83.7v61.9c8.1-.3,13.3-1.5,15.5-3.8s3.3-7.9,3.3-16.8V709.6c0-9.5-1-15.2-3-17.2S1273.7,689.1,1265.2,688.9Z" transform="translate(-7.5 -53.4)"/><path class="cls-1" d="M1419.8,567.3V788.6h-57.6V567.3Z" transform="translate(-7.5 -53.4)"/><path class="cls-1" d="M1580.1,567.3l-33,99.9,36.2,121.4h-59.5l-23.3-94.9v94.9h-57.6V567.3h57.6v86l25.6-86Z" transform="translate(-7.5 -53.4)"/><path class="cls-1" d="M1593.1,567.3h96v44.3h-38.4v42h36v42.1h-36v48.7h42.2v44.3h-99.8V567.3Z" transform="translate(-7.5 -53.4)"/><path class="cls-1" d="M1831.5,634.3H1778V617.9c0-7.7-.7-12.5-2.1-14.6s-3.6-3.1-6.8-3.1a8.77,8.77,0,0,0-7.9,4.2q-2.7,4.2-2.7,12.9c0,7.4,1,13,3,16.7s7.3,8.3,16.3,13.5c25.6,15.2,41.8,27.7,48.4,37.4s10,25.5,10,47.2c0,15.8-1.8,27.4-5.5,34.9s-10.8,13.7-21.4,18.8-22.9,7.6-36.9,7.6c-15.4,0-28.6-2.9-39.4-8.8s-18-13.3-21.4-22.3-5.1-21.8-5.1-38.4V709.4H1760v26.9c0,8.3.8,13.6,2.3,16s4.2,3.6,8,3.6,6.7-1.5,8.5-4.5,2.8-7.5,2.8-13.4c0-13-1.8-21.6-5.3-25.6s-12.6-10.7-26.9-20.1-23.8-16.4-28.4-20.6-8.5-10.2-11.6-17.8-4.6-17.2-4.6-29c0-17,2.2-29.3,6.5-37.2s11.3-14,21-18.4,21.3-6.6,35-6.6c14.9,0,27.7,2.4,38.2,7.2s17.5,10.9,20.9,18.3,5.1,19.8,5.1,37.4Z" transform="translate(-7.5 -53.4)"/></g><g class="cls-2"><path class="cls-1" d="M1087.9,53.4l19.4,27.1a57.2,57.2,0,0,1,6.2,10.9,29.39,29.39,0,0,1,2.6,10.9,21.44,21.44,0,0,1-2.4,10.4c-1.7,3.4-4.6,6.5-8.7,9.5-5,3.5-10.1,5.3-15.4,5.2s-10.2-2.3-14.7-6.6l-16.8,39-13.3-18.5,17.5-34.7-5.5-7.6-28,20.1-11.1-15.5Zm-18,36.2,6.5,9.1c1,1.4,2.1,2.8,3.3,4.3a16.37,16.37,0,0,0,3.9,3.6,9.3,9.3,0,0,0,4.6,1.5,8.4,8.4,0,0,0,5.3-2,10,10,0,0,0,3.5-4.1,8.69,8.69,0,0,0,.4-4.5,15.41,15.41,0,0,0-1.6-4.7,34,34,0,0,0-2.8-4.5l-7.2-10.1Z" transform="translate(-7.5 -53.4)"/><path class="cls-1" d="M1150.4,140.7l9.1,12.8-48.3,80.7-12.5-17.4,10.5-16.7-19.5-27.2-19,4.8-12.2-17Zm-16.2,20.5-27.9,7.1,12.3,17.1Z" transform="translate(-7.5 -53.4)"/><path class="cls-1" d="M1186.4,191l18.7,26a65.31,65.31,0,0,1,6.4,11,27.56,27.56,0,0,1,2.6,10.9,21.44,21.44,0,0,1-2.4,10.4,26.87,26.87,0,0,1-8.8,9.5,30.43,30.43,0,0,1-11.7,5.4,20.59,20.59,0,0,1-10.5-.7,26.68,26.68,0,0,1-9.4-5.7,56.66,56.66,0,0,1-8.4-9.6l-8.1-11.3-27.3,19.6L1116.4,241Zm-18.6,36.7,7.4,10.3a23.54,23.54,0,0,0,3.3,3.7,14.67,14.67,0,0,0,3.8,2.5,8,8,0,0,0,4.3.6,10.74,10.74,0,0,0,4.8-2,8.49,8.49,0,0,0,3.4-4.3,10.55,10.55,0,0,0,.3-5,17.65,17.65,0,0,0-1.9-5.1c-1-1.7-2-3.3-3-4.7l-5.7-7.9Z" transform="translate(-7.5 -53.4)"/><path class="cls-1" d="M1230.9,253.2l11.1,15.5-70.1,50.2-11.1-15.5Z" transform="translate(-7.5 -53.4)"/><path class="cls-1" d="M1252.1,282.7l16.6,23.2a84.74,84.74,0,0,1,9.6,17.3,44.74,44.74,0,0,1,3.4,17.6,36.43,36.43,0,0,1-4.5,16.8c-2.9,5.4-7.6,10.4-14,15a40.3,40.3,0,0,1-17.3,7.5,37.83,37.83,0,0,1-17.1-.9,46.19,46.19,0,0,1-15.7-7.8,60.82,60.82,0,0,1-13-13.3L1182,332.8Zm-44.8,55.5,5.7,8a57,57,0,0,0,8.2,9.2,26,26,0,0,0,9.3,5.4,21.42,21.42,0,0,0,10.4.5,27.81,27.81,0,0,0,11.4-5.3,24.63,24.63,0,0,0,7.6-8.3,22.31,22.31,0,0,0,2.6-9.7,27,27,0,0,0-1.8-10.3,42.91,42.91,0,0,0-5.4-10.1l-6.5-9.1Z" transform="translate(-7.5 -53.4)"/><path class="cls-1" d="M1268.1,379.2a49.42,49.42,0,0,1,17.3-8.1,42.21,42.21,0,0,1,17.3-.5,43.75,43.75,0,0,1,16,6.7,52.83,52.83,0,0,1,13.4,13.3,53.59,53.59,0,0,1,8.3,17,42.55,42.55,0,0,1,1.2,17.3,40.91,40.91,0,0,1-6,16.2,48.83,48.83,0,0,1-13.2,13.7,49.42,49.42,0,0,1-17.3,8.1,42.21,42.21,0,0,1-17.3.5,43.75,43.75,0,0,1-16-6.7,52.83,52.83,0,0,1-13.4-13.3,53.59,53.59,0,0,1-8.3-17,42.55,42.55,0,0,1-1.2-17.3,40.91,40.91,0,0,1,6-16.2A48.83,48.83,0,0,1,1268.1,379.2Zm11.5,16.1a32,32,0,0,0-8,8,27.18,27.18,0,0,0-4,9.5,25.57,25.57,0,0,0,.2,10.3,29.32,29.32,0,0,0,4.7,10.2,29.82,29.82,0,0,0,8.1,7.8,24.23,24.23,0,0,0,9.6,3.5,25.81,25.81,0,0,0,10.3-.7,30.22,30.22,0,0,0,10.2-5,31.55,31.55,0,0,0,7.9-8,24.84,24.84,0,0,0,3.8-19.8,29.32,29.32,0,0,0-4.7-10.2,29.82,29.82,0,0,0-8.1-7.8,24.23,24.23,0,0,0-9.6-3.5,25.81,25.81,0,0,0-10.3.7A31.74,31.74,0,0,0,1279.6,395.3Z" transform="translate(-7.5 -53.4)"/></g><polygon class="cls-3" points="927.2 75 811.8 207.2 928.7 318.4 922.8 139.5 1182.3 403.7 927.2 75"/><polyline class="cls-3" points="658.2 261.5 801.9 429.6 659.9 207.2 579.3 314.4"/></svg>