<?xml version="1.0" encoding="utf-8"?>
<!-- Generator: Adobe Illustrator 22.1.0, SVG Export Plug-In . SVG Version: 6.00 Build 0)  -->
<svg version="1.1" id="Layer_1" xmlns="http://www.w3.org/2000/svg" xmlns:xlink="http://www.w3.org/1999/xlink" x="0px" y="0px"
	 viewBox="0 0 2280.4 1001.8" style="enable-background:new 0 0 2280.4 1001.8;" xml:space="preserve">
<style type="text/css">
	.st0{fill:#030303;}
</style>
<title>Rapido-Digitalwarehouse_dark-3</title>
<path d="M560,417.6V558H528V257.2h52.4c45.3,0,67.3,19.6,67.3,69.2v13.8c0,40.7-14.4,57.7-30.6,63.3c19.1,6.9,27.9,21.3,27.9,61.7
	c0,25.8-0.5,73.9,3,92.7h-31.2c-3.8-18.6-3.1-69.4-3.1-90.4c0-39-5.5-49.9-35.3-49.9L560,417.6l0.1-0.3H560V417.6z M560,390.5h19.6
	c28.5,0,36-16.4,36-48.7v-13.3c0-27.4-7.5-43.9-37.6-43.9h-18.1L560,390.5L560,390.5L560,390.5z"/>
<path d="M717.4,462L703,557.8h-32.4l49.3-300.9h45.7L817,557.8h-33.3L768.1,462L717.4,462L717.4,462z M764,432.6
	c-10.6-66.2-18.1-117.2-21-146h-1.5c-1.2,23.1-12,90.9-20,146H764z"/>
<path d="M843.2,257.2h55c44.8,0,65.9,22.7,65.9,71.1v18.3c0,45.3-13.5,78.7-68.2,78.7h-20.8v132.6h-32L843.2,257.2L843.2,257.2z
	 M875.2,398.5H893c33.9,0,39-21,39-52.3v-16.3c0-24.2-5.5-45.7-36.3-45.7h-20.9v114.2L875.2,398.5z"/>
<path d="M1027.9,257.2v300.9h-32V257.2H1027.9z"/>
<path d="M1072.8,257.2h54.5c65.1,0,73.2,40.1,73.2,87.9v119c0,46-7.1,94.1-75.1,94.1h-52.5V257.2H1072.8z M1104.5,530.2h18.3
	c36.4,0,44.9-20.5,44.9-59.9V341.4c0-34.8-6.3-56.1-44.6-56.1h-18.4v244.8L1104.5,530.2z"/>
<path d="M1362.7,331.2v151.4c0,52.9-21.7,79.2-66.6,79.2c-46.6,0-63.6-29.8-63.6-78.9V331c0-51.2,23.1-77.9,65.7-77.9
	C1342.7,253.3,1362.7,283.6,1362.7,331.2z M1265.3,329.8v156c0,33.8,12.3,47.1,32.4,47.1c21.3,0,32.4-13.1,32.4-48.7V329.8
	c0-32-11-47.1-32.6-47.1C1275.6,282.5,1265.3,296.8,1265.3,329.8z"/>
<path d="M527.6,627.8c12.9-1.9,25.8-2.9,38.8-3c26.2,0,44.8,6.1,57.3,17.6c12.6,11.6,19.9,27.9,19.9,50.7c0,23-7.1,41.9-20.3,54.9
	c-13.2,13.2-35,20.3-62.4,20.3c-11,0.1-22.1-0.5-33.1-1.6L527.6,627.8L527.6,627.8z M545.9,752.6c4.6,0.9,11.2,1.1,18.4,1.1
	c39,0,60.2-21.7,60.2-60c0.2-33.3-18.6-54.5-57.3-54.5c-7.1-0.1-14.3,0.5-21.4,1.8V752.6z"/>
<path d="M687,637.2c0.2,6.3-4.4,11.2-11.8,11.2c-6,0.1-11-4.7-11-10.9c0-0.2,0-0.3,0-0.5c-0.2-6.2,4.7-11.4,11-11.6
	c0.2,0,0.4,0,0.5,0C682.8,625.6,687,630.7,687,637.2z M666.5,767V665.7h18.4v101.5L666.5,767L666.5,767z"/>
<path d="M802.9,665.7c-0.4,7.3-0.9,15.5-0.9,27.9v58.9c0,23.2-4.6,37.5-14.5,46.4c-9.9,9.2-24.1,12.1-36.8,12.1
	c-12.1,0-25.6-2.9-33.7-8.4l4.6-14c6.7,4.2,17.2,7.9,29.8,7.9c18.8,0,32.7-9.9,32.7-35.3v-11.2h-0.4c-5.7,9.4-16.5,17-32.2,17
	c-25.1,0-43.1-21.4-43.1-49.5c0-34.4,22.5-53.9,45.7-53.9c17.6,0,27.2,9.2,31.7,17.6h0.4l0.9-15.2L802.9,665.7z M783.9,705.7
	c0.1-2.8-0.3-5.7-1.1-8.4c-3.4-10.6-12.3-19.4-25.8-19.4c-17.6,0-30.1,14.9-30.1,38.4c0,19.9,10,36.4,30,36.4
	c11.2,0,21.6-7.1,25.6-18.8c1-3.2,1.6-6.6,1.5-9.9L783.9,705.7L783.9,705.7z"/>
<path d="M852,637.2c0.2,6.3-4.4,11.2-11.8,11.2c-6,0.1-11-4.7-11-10.9c0-0.2,0-0.3,0-0.5c-0.2-6.2,4.7-11.4,11-11.6
	c0.2,0,0.4,0,0.5,0C847.6,625.6,852,630.7,852,637.2z M831.4,767V665.7h18.4v101.5L831.4,767z"/>
<path d="M902.6,636.5v29.1H929v14h-26.4v54.7c0,12.5,3.6,19.7,13.8,19.7c3.6,0.1,7.2-0.4,10.7-1.3l0.9,13.8
	c-3.6,1.5-9.2,2.6-16.3,2.6c-8.6,0-15.5-2.7-19.9-7.8c-5.2-5.5-7.1-14.5-7.1-26.4v-55.3h-15.7v-14h15.7v-24.3L902.6,636.5z"/>
<path d="M1005.9,767l-1.5-12.8h-0.6c-5.7,7.9-16.5,15.1-31,15.1c-20.5,0-31-14.5-31-29.1c0-24.5,21.7-37.9,60.9-37.7v-1.9
	c0-8.4-2.4-23.6-23-23.6c-9.3,0-18.4,2.6-26.4,7.6l-4.2-12.1c8.4-5.5,20.5-9,33.3-9c31,0,38.5,21.2,38.5,41.5v37.9
	c0,8.9,0.4,17.3,1.6,24.3H1005.9z M1003.2,715.3c-20.1-0.4-42.9,3.1-42.9,22.8c0,12,7.9,17.6,17.3,17.6c13.2,0,21.6-8.4,24.5-17
	c0.6-1.9,1-3.8,1.1-5.8V715.3L1003.2,715.3z"/>
<path d="M1050.8,618.4h18.4V767h-18.4V618.4z"/>
<path d="M1152,665.7l13.4,51.5c2.9,11.2,5.7,21.7,7.6,32.2h0.5c2.4-10.3,5.7-21.2,9-32.1l16.5-51.8h15.5l15.7,50.7
	c3.7,12.1,6.7,22.8,9,33.1h0.5c1.6-10.3,4.4-21,7.8-32.9l14.5-51h18.3l-32.7,101.4h-16.9l-15.5-48.4c-3.6-11.2-6.5-21.4-9-33.3h-0.5
	c-2.5,11.3-5.5,22.6-9.2,33.5l-16.3,48.1h-16.7L1133,665.5L1152,665.7L1152,665.7z"/>
<path d="M1354.1,767l-1.5-12.8h-0.6c-5.7,7.9-16.5,15.1-31,15.1c-20.5,0-31-14.5-31-29.1c0-24.5,21.7-37.9,60.9-37.7v-1.9
	c0-8.4-2.4-23.6-23-23.6c-9.3,0-18.4,2.6-26.4,7.6l-4.2-12.1c8.4-5.5,20.5-9,33.3-9c31,0,38.5,21.2,38.5,41.5v37.9
	c0,8.9,0.4,17.3,1.6,24.3H1354.1z M1351.4,715.3c-20.1-0.4-42.9,3.1-42.9,22.8c0,12,7.9,17.6,17.3,17.6c13.2,0,21.6-8.4,24.5-17
	c0.6-1.9,1-3.8,1.1-5.8V715.3L1351.4,715.3z"/>
<path d="M1399,697.3c0-12-0.2-22.2-0.9-31.7h16.2l0.6,19.9h0.9c4.6-13.6,15.7-22.3,28.1-22.3c1.7,0,3.5,0.2,5.2,0.5v17.3
	c-2.1-0.5-4.2-0.6-6.3-0.6c-13.1,0-22.3,9.8-24.7,23.7c-0.5,2.8-0.8,5.8-0.9,8.6v54.1h-18.2L1399,697.3z"/>
<path d="M1475.6,719.7c0.4,24.9,16.3,35.2,34.8,35.2c13.2,0,21.2-2.4,28.1-5.2l3.1,13.2c-6.5,2.9-17.6,6.3-33.7,6.3
	c-31.2,0-49.9-20.5-49.9-51.1s18-54.7,47.5-54.7c33.1,0,41.9,29.1,41.9,47.8c0,2.9-0.3,5.8-0.6,8.6L1475.6,719.7L1475.6,719.7
	L1475.6,719.7z M1529.7,706.5c0.2-11.8-4.8-30-25.6-30c-18.6,0-26.8,17.2-28.3,30H1529.7z"/>
<path d="M1570.3,618.4h18.4v63.3h0.4c3.1-5.5,7.7-10,13.2-13.1c5.8-3.3,12.2-5.1,18.8-5.2c13.6,0,35.3,8.4,35.3,43.4v60.5h-18.4
	v-58.3c0-16.3-6.1-30.1-23.6-30.1c-12,0-21.4,8.4-24.7,18.4c-1.1,2.6-1.3,5.2-1.3,8.9v61.2h-18.4L1570.3,618.4L1570.3,618.4z"/>
<path d="M1778.3,715.5c0,37.5-25.9,53.9-50.5,53.9c-27.4,0-48.6-20.1-48.6-52.1c0-33.9,22.3-53.9,50.2-53.9
	C1758.7,663.3,1778.3,684.5,1778.3,715.5z M1697.9,716.6c0,22.3,12.8,39,30.8,39c17.6,0,30.8-16.5,30.8-39.4c0-17.2-8.6-39-30.4-39
	C1707.2,677.3,1697.9,697.3,1697.9,716.6L1697.9,716.6z"/>
<path d="M1886.6,739.4c0,10.5,0.2,19.7,0.9,27.7h-16.3l-1.1-16.5h-0.4c-6.9,11.9-19.7,19.1-33.5,18.8c-16,0-35-8.9-35-44.4v-59.3
	h18.4v56.2c0,19.3,5.8,32.2,22.6,32.2c12.3,0,21-8.6,24.3-16.7c1.1-3,1.7-6.2,1.6-9.4v-62.2h18.4L1886.6,739.4L1886.6,739.4z"/>
<path d="M1914.6,748.1c5.5,3.6,15.1,7.3,24.3,7.3c13.4,0,19.7-6.7,19.7-15.1c0-8.9-5.2-13.6-18.8-18.6
	c-18.3-6.5-26.8-16.5-26.8-28.7c0-16.3,13.2-29.8,35-29.8c10.3,0,19.3,2.9,24.8,6.3l-4.6,13.4c-6.2-3.8-13.4-5.9-20.8-5.8
	c-10.9,0-17,6.3-17,13.8c0,8.4,6,12.1,19.3,17.2c17.6,6.7,26.7,15.5,26.7,30.6c0,17.8-13.8,30.4-37.9,30.4c-11,0-21.4-2.7-28.5-6.9
	L1914.6,748.1z"/>
<path d="M2010.4,719.7c0.4,24.9,16.3,35.2,34.8,35.2c13.2,0,21.2-2.4,28.1-5.2l3.1,13.2c-6.5,2.9-17.6,6.3-33.7,6.3
	c-31.2,0-49.9-20.5-49.9-51.1s18-54.7,47.5-54.7c33.1,0,41.9,29.1,41.9,47.8c0,2.9-0.3,5.8-0.5,8.6L2010.4,719.7L2010.4,719.7z
	 M2064.3,706.5c0.2-11.8-4.7-30-25.6-30c-18.6,0-26.8,17.2-28.3,30H2064.3z"/>
<polygon class="st0" points="1366.6,0 1370.1,0 1370.1,0 "/>
<path d="M426.4,366.4c-4.5-10.9-10-19.4-16.3-25.7L304.6,235.1c-6.3-6.3-14.9-11.7-25.8-16.3c-10.9-4.6-20.7-6.8-29.8-6.8H32.5
	c-17.9,0-32.4,14.4-32.5,32.2c0,0.1,0,0.2,0,0.3v454.8c-0.1,17.9,14.3,32.4,32.2,32.5c0.1,0,0.2,0,0.3,0h106
	c-6.9-14.2-14.3-28.4-19.5-43.3H43.3V255.5h173.3v140.8c-0.1,17.9,14.3,32.4,32.2,32.5c0.1,0,0.2,0,0.3,0h140.8v259.9h-86.7
	c-1.5,14.5-3.5,28.9-6.1,43.3h103.6c17.9,0.1,32.4-14.3,32.5-32.2c0-0.1,0-0.2,0-0.3V396.3C433.2,387.2,430.9,377.3,426.4,366.4z
	 M260,385.4V258.1c6.6,2.3,11.1,4.7,13.9,7.4l105.9,105.9c2.7,2.7,5.2,7.3,7.4,13.9L260,385.4z"/>
<rect x="88.5" y="312.1" width="103.8" height="24.8"/>
<rect x="88.5" y="385.4" width="103.8" height="24.8"/>
<path d="M246.7,503.6c-7.9,0-14.2,6.3-14.2,14.2s6.3,14.2,14.2,14.2c7.9,0,14.2-6.3,14.2-14.2l0,0
	C260.9,509.9,254.5,503.6,246.7,503.6z"/>
<path d="M256.9,639.9h78c5.5,0.1,10-4.3,10.1-9.8V630V477.5c0-5.6-4.6-10-10.1-10H98.3c-5.6,0-10,4.6-10.1,10V630
	c0.1,5.5,4.6,9.9,10,9.9h0.1h72.1c5.3-0.2,1.6,0,6.9,0l-0.9-28.1v-34.1c0-7.8,6.2-14.1,14-14.2l0,0h48.9l-47.5-47.4
	c-0.8-0.8-2.1-0.8-2.8,0l-36.6,36.6l-16.7-16.6c-0.8-0.8-2.1-0.8-2.8,0l-26.6,26.6v-77.3h220.7v87.2l-36.5-36.4
	c-0.8-0.8-2.1-0.8-2.8,0l-33.5,33.6c1.6,2.4,2.6,5.2,2.6,8v34.1"/>
<path d="M275.8,697.9h-35.5V591.1c0.1-2.5-0.5-4.8-1.6-6.9c-1.1-1.8-2.6-2.7-4.2-2.7h-35.5c-1.7,0-3.1,0.9-4.2,2.7
	c-1.2,2.1-1.7,4.6-1.6,6.9v106.8h-35.5c-2.7,0-4.6,2-5.6,6.1c-1,3.6-0.5,7.4,1.3,10.6l59.2,97.2c1.4,1.8,2.7,2.7,4.3,2.7
	c1.6,0,2.9-0.9,4.3-2.7l58.9-96.9c1.2-2.3,1.8-4.7,1.8-7.3c0.1-2.5-0.5-4.8-1.6-7C279,698.8,277.5,697.9,275.8,697.9z"/>
</svg>
