<?xml version="1.0" encoding="utf-8"?>
<!-- Generator: Adobe Illustrator 22.1.0, SVG Export Plug-In . SVG Version: 6.00 Build 0)  -->
<svg version="1.1" id="Layer_1" xmlns="http://www.w3.org/2000/svg" xmlns:xlink="http://www.w3.org/1999/xlink" x="0px" y="0px"
	 viewBox="0 0 1945.8 854.4" style="enable-background:new 0 0 1945.8 854.4;" xml:space="preserve">
<style type="text/css">
	.st0{fill:#FFFFFF;}
	.st1{fill:#034F78;}
</style>
<title>Rapido-bikes-8-white</title>
<g id="terrain">
	<path class="st0" d="M928,74.6l-143,182l109.1,138.3l-60.2,43.7c-64-80.1-169.4-218.4-169.4-218.4L438.7,511.4h828.1L928,74.6z"/>
</g>
<g>
	<path class="st0" d="M183.6,563.9v221.3h-50.3l-0.1-149.4l-20,149.4H77.5l-21.1-146l-0.1,146H6V563.9h74.5
		c2.2,13.3,4.5,29,6.8,47.1l8.2,56.3l13.2-103.4L183.6,563.9z"/>
	<path class="st0" d="M338.2,693.5c0,22.2-0.5,38-1.6,47.2c-1,9.2-4.4,17.9-9.8,25.4c-5.5,7.7-13,13.5-22.4,17.6s-20.3,6.2-32.8,6.2
		c-11.8,0-22.5-1.9-31.9-5.8c-9-3.6-16.9-9.6-22.8-17.4c-5.6-7.4-9.1-16.1-10.3-25.3c-1.1-9.1-1.6-25.1-1.6-47.9v-37.9
		c0-22.2,0.5-38,1.6-47.2c1-9.2,4.4-17.9,9.8-25.4c5.5-7.7,13-13.5,22.4-17.6s20.3-6.2,32.8-6.2c11.8,0,22.5,1.9,31.9,5.8
		c9,3.6,16.9,9.6,22.8,17.4c5.6,7.4,9.1,16.1,10.3,25.3c1.1,9.1,1.6,25.1,1.6,47.9V693.5z M280.7,620.8c0-10.3-0.6-16.9-1.7-19.8
		s-3.5-4.3-7-4.3c-2.8-0.1-5.4,1.2-6.9,3.5c-1.6,2.3-2.4,9.2-2.4,20.6v103.4c0,12.9,0.5,20.8,1.6,23.8s3.5,4.5,7.3,4.5
		s6.4-1.7,7.5-5.2s1.6-11.7,1.6-24.7V620.8z"/>
	<path class="st0" d="M490.5,563.9v147.9c0,16.8-0.5,28.6-1.6,35.3s-4.3,13.8-9.7,20.9c-5.5,7.3-12.9,12.9-21.3,16.3
		c-8.8,3.7-19.2,5.5-31.1,5.5c-13.2,0-24.9-2.2-35-6.6s-17.7-10.1-22.7-17.1c-4.8-6.5-7.9-14.2-8.9-22.2c-0.9-7.8-1.4-24.2-1.4-49.2
		v-131h57.6v166c0,9.7,0.5,15.8,1.6,18.5s3.2,4,6.4,4c3.6,0,6-1.5,7-4.4s1.6-10,1.6-21V563.9H490.5z"/>
	<path class="st0" d="M641.3,563.9v221.3h-50.4l-30-100.6v100.6h-48.1V563.9h48.1l32.3,99.7v-99.7H641.3z"/>
</g>
<g>
	<path class="st0" d="M780.4,563.9v44.3h-34.2v177.1h-57.6V608.2h-34v-44.3H780.4z"/>
</g>
<g>
	<path class="st0" d="M881.8,563.9l32.9,221.3h-58.8l-3.1-39.8h-20.6l-3.5,39.8h-59.5l29.4-221.3H881.8z M851.3,706.2
		c-2.9-25.1-5.8-56.1-8.8-93c-5.9,42.4-9.5,73.4-11,93H851.3z"/>
	<path class="st0" d="M982,563.9v221.3h-57.5V563.9H982z"/>
	<path class="st0" d="M1133.6,563.9v221.3h-50.4l-29.9-100.6v100.6h-48.1V563.9h48.1l32.2,99.7v-99.7H1133.6z"/>
	<path class="st0" d="M1206.1,563.9h57.4c18.1,0,31.9,1.4,41.2,4.2c9.3,2.8,17.4,8.9,22.6,17.1c5.7,8.6,8.6,22.5,8.6,41.6
		c0,12.9-2,22-6.1,27.1s-12.1,9-24,11.7c13.3,3,22.3,8,27.1,15s7.1,17.7,7.1,32.1v20.5c0,15-1.7,26-5.1,33.2
		c-3.2,7-9.1,12.3-16.3,14.8c-7.5,2.6-22.8,4-45.9,4h-66.6L1206.1,563.9L1206.1,563.9z M1263.7,601.8V651c2.5-0.1,4.4-0.1,5.7-0.1
		c5.7,0,9.2-1.4,10.8-4.2s2.3-10.7,2.3-23.9c0-6.9-0.6-11.8-1.9-14.6s-2.9-4.5-5-5.3C1273.6,602.3,1269.6,601.9,1263.7,601.8z
		 M1263.7,685.5v61.9c8.1-0.3,13.3-1.5,15.5-3.8s3.3-7.9,3.3-16.8v-20.6c0-9.5-1-15.2-3-17.2S1272.2,685.7,1263.7,685.5z"/>
	<path class="st0" d="M1418.3,563.9v221.3h-57.6V563.9H1418.3z"/>
	<path class="st0" d="M1578.6,563.9l-33,99.9l36.2,121.4h-59.5l-23.3-94.9v94.9h-57.6V563.9h57.6v86l25.6-86H1578.6z"/>
	<path class="st0" d="M1591.6,563.9h96v44.3h-38.4v42h36v42.1h-36V741h42.2v44.3h-99.8L1591.6,563.9L1591.6,563.9z"/>
	<path class="st0" d="M1830,630.9h-53.5v-16.4c0-7.7-0.7-12.5-2.1-14.6s-3.6-3.1-6.8-3.1c-3.2-0.1-6.2,1.5-7.9,4.2
		c-1.8,2.8-2.7,7.1-2.7,12.9c0,7.4,1,13,3,16.7s7.3,8.3,16.3,13.5c25.6,15.2,41.8,27.7,48.4,37.4s10,25.5,10,47.2
		c0,15.8-1.8,27.4-5.5,34.9s-10.8,13.7-21.4,18.8s-22.9,7.6-36.9,7.6c-15.4,0-28.6-2.9-39.4-8.8s-18-13.3-21.4-22.3
		s-5.1-21.8-5.1-38.4V706h53.5v26.9c0,8.3,0.8,13.6,2.3,16s4.2,3.6,8,3.6s6.7-1.5,8.5-4.5s2.8-7.5,2.8-13.4c0-13-1.8-21.6-5.3-25.6
		s-12.6-10.7-26.9-20.1s-23.8-16.4-28.4-20.6s-8.5-10.2-11.6-17.8s-4.6-17.2-4.6-29c0-17,2.2-29.3,6.5-37.2s11.3-14,21-18.4
		s21.3-6.6,35-6.6c14.9,0,27.7,2.4,38.2,7.2s17.5,10.9,20.9,18.3s5.1,19.8,5.1,37.4V630.9z"/>
</g>
<g>
	<path class="st0" d="M1076.4,50l19.4,27.1c2.5,3.4,4.5,7.1,6.2,10.9c1.6,3.4,2.4,7.1,2.6,10.9c0.1,3.6-0.7,7.2-2.4,10.4
		c-1.7,3.4-4.6,6.5-8.7,9.5c-5,3.5-10.1,5.3-15.4,5.2s-10.2-2.3-14.7-6.6l-16.8,39l-13.3-18.5l17.5-34.7l-5.5-7.6l-28,20.1
		l-11.1-15.5L1076.4,50z M1058.4,86.2l6.5,9.1c1,1.4,2.1,2.8,3.3,4.3c1.1,1.4,2.4,2.6,3.9,3.6c1.4,0.9,3,1.4,4.6,1.5
		c1.9,0,3.8-0.7,5.3-2c1.5-1,2.7-2.4,3.5-4.1c0.5-1.4,0.7-3,0.4-4.5c-0.3-1.6-0.8-3.2-1.6-4.7c-0.8-1.6-1.8-3.1-2.8-4.5l-7.2-10.1
		L1058.4,86.2z"/>
	<path class="st0" d="M1138.9,137.3l9.1,12.8l-48.3,80.7l-12.5-17.4l10.5-16.7l-19.5-27.2l-19,4.8l-12.2-17L1138.9,137.3z
		 M1122.7,157.8l-27.9,7.1l12.3,17.1L1122.7,157.8z"/>
	<path class="st0" d="M1174.9,187.6l18.7,26c2.5,3.4,4.6,7.1,6.4,11c1.6,3.4,2.5,7.1,2.6,10.9c0.1,3.6-0.7,7.2-2.4,10.4
		c-2.1,3.8-5.1,7.1-8.8,9.5c-3.5,2.6-7.5,4.5-11.7,5.4c-3.5,0.7-7.1,0.4-10.5-0.7c-3.5-1.2-6.7-3.2-9.4-5.7c-3.2-2.9-6-6.1-8.4-9.6
		l-8.1-11.3l-27.3,19.6l-11.1-15.5L1174.9,187.6z M1156.3,224.3l7.4,10.3c1,1.3,2.1,2.6,3.3,3.7c1.1,1,2.4,1.9,3.8,2.5
		s2.8,0.8,4.3,0.6c1.7-0.3,3.4-1,4.8-2c1.6-1,2.8-2.5,3.4-4.3c0.5-1.6,0.6-3.3,0.3-5c-0.4-1.8-1-3.5-1.9-5.1c-1-1.7-2-3.3-3-4.7
		l-5.7-7.9L1156.3,224.3z"/>
	<path class="st0" d="M1219.4,249.8l11.1,15.5l-70.1,50.2l-11.1-15.5L1219.4,249.8z"/>
	<path class="st0" d="M1240.6,279.3l16.6,23.2c3.9,5.4,7.1,11.2,9.6,17.3c2.3,5.6,3.5,11.6,3.4,17.6c-0.1,5.9-1.7,11.6-4.5,16.8
		c-2.9,5.4-7.6,10.4-14,15c-5.1,3.8-11,6.4-17.3,7.5c-5.7,1-11.5,0.7-17.1-0.9c-5.7-1.6-11-4.2-15.7-7.8c-5-3.7-9.4-8.2-13-13.3
		l-18.1-25.3L1240.6,279.3z M1195.8,334.8l5.7,8c2.4,3.4,5.1,6.4,8.2,9.2c2.7,2.4,5.9,4.3,9.3,5.4c3.4,1,6.9,1.2,10.4,0.5
		c4.2-0.9,8.1-2.7,11.4-5.3c3.1-2.1,5.7-5,7.6-8.3c1.6-3,2.5-6.3,2.6-9.7c0.1-3.5-0.5-7-1.8-10.3c-1.3-3.6-3.2-7-5.4-10.1l-6.5-9.1
		L1195.8,334.8z"/>
	<path class="st0" d="M1256.6,375.8c5.2-3.8,11.1-6.6,17.3-8.1c5.7-1.4,11.6-1.5,17.3-0.5c5.7,1.1,11.2,3.4,16,6.7
		c5.2,3.6,9.8,8.1,13.4,13.3c3.8,5.1,6.6,10.9,8.3,17c1.6,5.6,2,11.5,1.2,17.3s-2.9,11.3-6,16.2c-3.5,5.4-7.9,10-13.2,13.7
		c-5.2,3.8-11.1,6.6-17.3,8.1c-5.7,1.4-11.6,1.5-17.3,0.5c-5.7-1.1-11.2-3.4-16-6.7c-5.2-3.6-9.8-8.1-13.4-13.3
		c-3.8-5.1-6.6-10.9-8.3-17c-1.6-5.6-2-11.5-1.2-17.3s2.9-11.3,6-16.2C1246.9,384.1,1251.3,379.5,1256.6,375.8z M1268.1,391.9
		c-3.1,2.2-5.8,4.9-8,8c-1.9,2.9-3.3,6.1-4,9.5c-0.6,3.4-0.6,6.9,0.2,10.3c0.9,3.7,2.5,7.1,4.7,10.2s4.9,5.7,8.1,7.8
		c2.9,1.8,6.2,3,9.6,3.5s6.9,0.2,10.3-0.7c3.7-1,7.1-2.7,10.2-5c3.1-2.2,5.8-4.9,7.9-8c4-5.8,5.4-13,3.8-19.8
		c-0.9-3.7-2.5-7.1-4.7-10.2s-4.9-5.7-8.1-7.8c-2.9-1.8-6.2-3-9.6-3.5s-6.9-0.2-10.3,0.7C1274.6,388,1271.1,389.6,1268.1,391.9
		L1268.1,391.9z"/>
</g>
<polygon class="st1" points="933.2,125 817.8,257.2 934.7,368.4 928.8,189.5 1188.3,453.7 "/>
<polyline class="st1" points="664.2,311.5 807.9,479.6 665.9,257.2 585.3,364.4 "/>
</svg>
