<?xml version="1.0" encoding="utf-8"?>
<!-- Generator: Adobe Illustrator 23.0.6, SVG Export Plug-In . SVG Version: 6.00 Build 0)  -->
<svg version="1.1" id="Layer_1" xmlns="http://www.w3.org/2000/svg" xmlns:xlink="http://www.w3.org/1999/xlink" x="0px" y="0px"
	 viewBox="0 0 1942.2 876.9" style="enable-background:new 0 0 1942.2 876.9;" xml:space="preserve">
<style type="text/css">
	.st0{fill:#6F9161;}
	.st1{enable-background:new    ;}
	.st2{fill:#1E5631;}
	.st3{fill:#FFFFFF;}
</style>
<title>Rapido-bikes-8-blue</title>
<g id="terrain">
	<path class="st0" d="M929.5,78l-143,182l109.1,138.3L835.4,442C771.4,361.9,666,223.6,666,223.6L440.2,514.8h828.1L929.5,78z"/>
</g>
<g class="st1">
	<path class="st0" d="M185.1,567.3v221.3h-50.3l-0.1-149.4l-20,149.4H79l-21.1-146l-0.1,146H7.5V567.3H82c2.2,13.3,4.5,29,6.8,47.1
		l8.2,56.3l13.2-103.4L185.1,567.3L185.1,567.3z"/>
	<path class="st0" d="M339.7,696.9c0,22.2-0.5,38-1.6,47.2c-1,9.3-4.3,17.7-9.8,25.4s-13,13.5-22.4,17.6s-20.3,6.2-32.8,6.2
		c-11.8,0-22.5-1.9-31.9-5.8s-17-9.7-22.8-17.4c-5.7-7.7-9.2-16.2-10.3-25.3s-1.6-25.1-1.6-47.9V659c0-22.2,0.5-38,1.6-47.2
		c1-9.2,4.3-17.7,9.8-25.4s13-13.5,22.4-17.6s20.3-6.2,32.8-6.2c11.8,0,22.5,1.9,31.9,5.8c9.4,3.9,17,9.7,22.8,17.4
		c5.7,7.7,9.2,16.2,10.3,25.3c1.1,9.1,1.6,25.1,1.6,47.9V696.9z M282.2,624.2c0-10.3-0.6-16.9-1.7-19.8c-1.1-2.9-3.5-4.3-7-4.3
		c-3,0-5.3,1.2-6.9,3.5s-2.4,9.2-2.4,20.6v103.4c0,12.9,0.5,20.8,1.6,23.8c1,3,3.5,4.5,7.3,4.5c3.9,0,6.4-1.7,7.5-5.2
		s1.6-11.7,1.6-24.7V624.2z"/>
	<path class="st0" d="M492,567.3v147.9c0,16.8-0.5,28.6-1.6,35.3c-1.1,6.8-4.3,13.8-9.7,20.9c-5.4,7.2-12.5,12.6-21.3,16.3
		s-19.2,5.5-31.1,5.5c-13.2,0-24.9-2.2-35-6.6s-17.7-10.1-22.7-17.1s-8-14.4-8.9-22.2s-1.4-24.2-1.4-49.2v-131h57.6v166
		c0,9.7,0.5,15.8,1.6,18.5c1,2.7,3.2,4,6.4,4c3.6,0,6-1.5,7-4.4c1-3,1.6-10,1.6-21V567.3H492z"/>
	<path class="st0" d="M642.8,567.3v221.3h-50.4l-30-100.6v100.6h-48.1V567.3h48.1l32.3,99.7v-99.7H642.8z"/>
</g>
<g class="st1">
	<path class="st0" d="M781.9,567.3v44.3h-34.2v177.1h-57.6V611.6h-34v-44.3H781.9z"/>
</g>
<g class="st1">
	<path class="st0" d="M883.3,567.3l32.9,221.3h-58.8l-3.1-39.8h-20.6l-3.5,39.8h-59.5l29.4-221.3H883.3z M852.8,709.6
		c-2.9-25.1-5.8-56.1-8.8-93c-5.9,42.4-9.5,73.4-11,93H852.8z"/>
	<path class="st0" d="M983.5,567.3v221.3H926V567.3H983.5z"/>
	<path class="st0" d="M1135.1,567.3v221.3h-50.4L1054.8,688v100.6h-48.1V567.3h48.1L1087,667v-99.7H1135.1z"/>
	<path class="st0" d="M1207.6,567.3h57.4c18.1,0,31.9,1.4,41.2,4.2c9.3,2.8,16.9,8.5,22.6,17.1s8.6,22.5,8.6,41.6
		c0,12.9-2,22-6.1,27.1s-12.1,9-24,11.7c13.3,3,22.3,8,27.1,15c4.7,7,7.1,17.7,7.1,32.1v20.5c0,15-1.7,26-5.1,33.2
		s-8.9,12.1-16.3,14.8c-7.5,2.6-22.8,4-45.9,4h-66.6L1207.6,567.3L1207.6,567.3z M1265.2,605.2v49.2c2.5-0.1,4.4-0.1,5.7-0.1
		c5.7,0,9.2-1.4,10.8-4.2c1.5-2.8,2.3-10.7,2.3-23.9c0-6.9-0.6-11.8-1.9-14.6s-2.9-4.5-5-5.3
		C1275.1,605.7,1271.1,605.3,1265.2,605.2z M1265.2,688.9v61.9c8.1-0.3,13.3-1.5,15.5-3.8s3.3-7.9,3.3-16.8v-20.6
		c0-9.5-1-15.2-3-17.2C1279,690.3,1273.7,689.1,1265.2,688.9z"/>
	<path class="st0" d="M1419.8,567.3v221.3h-57.6V567.3H1419.8z"/>
	<path class="st0" d="M1580.1,567.3l-33,99.9l36.2,121.4h-59.5l-23.3-94.9v94.9h-57.6V567.3h57.6v86l25.6-86H1580.1z"/>
	<path class="st0" d="M1593.1,567.3h96v44.3h-38.4v42h36v42.1h-36v48.7h42.2v44.3h-99.8L1593.1,567.3L1593.1,567.3z"/>
	<path class="st0" d="M1831.5,634.3H1778v-16.4c0-7.7-0.7-12.5-2.1-14.6s-3.6-3.1-6.8-3.1c-3.5,0-6.1,1.4-7.9,4.2s-2.7,7.1-2.7,12.9
		c0,7.4,1,13,3,16.7c1.9,3.7,7.3,8.3,16.3,13.5c25.6,15.2,41.8,27.7,48.4,37.4c6.7,9.8,10,25.5,10,47.2c0,15.8-1.8,27.4-5.5,34.9
		s-10.8,13.7-21.4,18.8s-22.9,7.6-36.9,7.6c-15.4,0-28.6-2.9-39.4-8.8c-10.9-5.8-18-13.3-21.4-22.3s-5.1-21.8-5.1-38.4v-14.5h53.5
		v26.9c0,8.3,0.8,13.6,2.3,16s4.2,3.6,8,3.6s6.7-1.5,8.5-4.5c1.9-3,2.8-7.5,2.8-13.4c0-13-1.8-21.6-5.3-25.6
		c-3.6-4-12.6-10.7-26.9-20.1c-14.3-9.5-23.8-16.4-28.4-20.6c-4.6-4.3-8.5-10.2-11.6-17.8s-4.6-17.2-4.6-29c0-17,2.2-29.3,6.5-37.2
		c4.3-7.8,11.3-14,21-18.4s21.3-6.6,35-6.6c14.9,0,27.7,2.4,38.2,7.2s17.5,10.9,20.9,18.3c3.4,7.3,5.1,19.8,5.1,37.4V634.3z"/>
</g>
<g class="st1">
	<path class="st2" d="M1087.9,53.4l19.4,27.1c2.6,3.6,4.6,7.2,6.2,10.9c1.6,3.7,2.5,7.3,2.6,10.9s-0.7,7-2.4,10.4
		c-1.7,3.4-4.6,6.5-8.7,9.5c-5,3.5-10.1,5.3-15.4,5.2s-10.2-2.3-14.7-6.6l-16.8,39l-13.3-18.5l17.5-34.7l-5.5-7.6l-28,20.1
		l-11.1-15.5L1087.9,53.4z M1069.9,89.6l6.5,9.1c1,1.4,2.1,2.8,3.3,4.3s2.5,2.7,3.9,3.6s2.9,1.4,4.6,1.5c1.6,0.1,3.4-0.6,5.3-2
		c1.8-1.3,2.9-2.7,3.5-4.1c0.5-1.5,0.7-3,0.4-4.5c-0.2-1.5-0.8-3.1-1.6-4.7c-0.8-1.6-1.8-3.1-2.8-4.5l-7.2-10.1L1069.9,89.6z"/>
	<path class="st2" d="M1150.4,140.7l9.1,12.8l-48.3,80.7l-12.5-17.4l10.5-16.7l-19.5-27.2l-19,4.8l-12.2-17L1150.4,140.7z
		 M1134.2,161.2l-27.9,7.1l12.3,17.1L1134.2,161.2z"/>
	<path class="st2" d="M1186.4,191l18.7,26c2.6,3.6,4.7,7.3,6.4,11c1.7,3.7,2.5,7.3,2.6,10.9c0.1,3.6-0.7,7-2.4,10.4
		c-1.7,3.4-4.7,6.6-8.8,9.5c-4.1,2.9-8,4.7-11.7,5.4c-3.7,0.7-7.2,0.4-10.5-0.7s-6.4-3-9.4-5.7s-5.8-5.9-8.4-9.6l-8.1-11.3
		l-27.3,19.6l-11.1-15.5L1186.4,191z M1167.8,227.7l7.4,10.3c1,1.4,2.1,2.6,3.3,3.7c1.2,1.1,2.5,1.9,3.8,2.5
		c1.4,0.6,2.8,0.8,4.3,0.6s3.1-0.8,4.8-2c1.8-1.3,2.9-2.7,3.4-4.3s0.6-3.3,0.3-5c-0.3-1.7-1-3.4-1.9-5.1c-1-1.7-2-3.3-3-4.7
		l-5.7-7.9L1167.8,227.7z"/>
	<path class="st2" d="M1230.9,253.2l11.1,15.5l-70.1,50.2l-11.1-15.5L1230.9,253.2z"/>
	<path class="st2" d="M1252.1,282.7l16.6,23.2c4,5.6,7.2,11.4,9.6,17.3c2.4,6,3.5,11.8,3.4,17.6c-0.1,5.8-1.6,11.4-4.5,16.8
		s-7.6,10.4-14,15c-5.7,4.1-11.5,6.6-17.3,7.5c-5.9,1-11.6,0.7-17.1-0.9c-5.5-1.5-10.8-4.1-15.7-7.8c-4.9-3.7-9.3-8.1-13-13.3
		l-18.1-25.3L1252.1,282.7z M1207.3,338.2l5.7,8c2.6,3.6,5.3,6.6,8.2,9.2s6,4.3,9.3,5.4c3.3,1,6.8,1.2,10.4,0.5
		c3.7-0.7,7.5-2.4,11.4-5.3c3.4-2.5,6-5.2,7.6-8.3c1.6-3.1,2.5-6.3,2.6-9.7c0.1-3.4-0.5-6.8-1.8-10.3s-3.1-6.9-5.4-10.1l-6.5-9.1
		L1207.3,338.2z"/>
	<path class="st2" d="M1268.1,379.2c5.6-4,11.4-6.7,17.3-8.1s11.7-1.5,17.3-0.5c5.6,1.1,10.9,3.3,16,6.7c5,3.4,9.5,7.8,13.4,13.3
		s6.7,11.1,8.3,17c1.6,5.9,2,11.6,1.2,17.3c-0.8,5.7-2.8,11.1-6,16.2s-7.6,9.7-13.2,13.7s-11.4,6.7-17.3,8.1s-11.7,1.5-17.3,0.5
		c-5.6-1.1-10.9-3.3-16-6.7c-5-3.4-9.5-7.8-13.4-13.3s-6.7-11.1-8.3-17c-1.6-5.9-2-11.6-1.2-17.3c0.8-5.7,2.8-11.1,6-16.2
		C1258.1,387.8,1262.5,383.2,1268.1,379.2z M1279.6,395.3c-3.3,2.4-6,5-8,8s-3.3,6.2-4,9.5c-0.6,3.4-0.6,6.8,0.2,10.3
		c0.8,3.5,2.4,6.9,4.7,10.2c2.4,3.3,5.1,5.9,8.1,7.8s6.2,3,9.6,3.5s6.8,0.2,10.3-0.7c3.5-0.9,6.9-2.6,10.2-5c3.2-2.3,5.9-5,7.9-8
		s3.4-6.2,4-9.5c0.6-3.4,0.6-6.8-0.2-10.3c-0.8-3.5-2.4-6.9-4.7-10.2c-2.4-3.3-5.1-5.9-8.1-7.8s-6.2-3-9.6-3.5s-6.8-0.2-10.3,0.7
		C1286.2,391.3,1282.9,392.9,1279.6,395.3z"/>
</g>
<polygon class="st3" points="934.7,128.4 819.3,260.6 936.2,371.8 930.3,192.9 1189.8,457.1 "/>
<polyline class="st3" points="665.7,314.9 809.4,483 667.4,260.6 586.8,367.8 "/>
</svg>
