<?xml version="1.0" encoding="utf-8"?>
<!-- Generator: Adobe Illustrator 23.0.6, SVG Export Plug-In . SVG Version: 6.00 Build 0)  -->
<svg version="1.1" id="Layer_1" xmlns="http://www.w3.org/2000/svg" xmlns:xlink="http://www.w3.org/1999/xlink" x="0px" y="0px"
	 viewBox="0 0 1942.2 359.1" style="enable-background:new 0 0 1942.2 359.1;" xml:space="preserve">
<style type="text/css">
	.st0{fill:#222222;}
	.st1{fill:none;}
</style>
<title>Rapido-bikes-8-blue</title>
<g>
	<path class="st0" d="M250.6,89.5c0,4.5-1.6,6.8-4.8,6.8s-5.5-4.1-6.8-12.3c-3.9-23.6-11.9-40.7-23.7-51.5
		c-7.8-6.9-19.7-11.1-35.9-12.7c-5.8-0.6-18.7-1-38.8-1c-14.9,0-32.6,0.5-53.3,1.5v142.5c41.4,0.3,66.9-2.4,76.6-8
		c9.7-5.6,15.5-21.5,17.5-47.7c0.6-7.4,2.6-11.2,5.8-11.2s4.8,2.4,4.8,7.3c0,2.9-0.2,5.4-0.4,7.3c-1,22.3-1.5,43-1.5,62.1
		c0,24.6,0.5,44,1.5,58.2c0.2,1.3,0.4,3.2,0.4,5.8c0,3.9-1.6,5.8-4.8,5.8c-2.6,0-4.2-1-4.8-2.9s-1.7-9.4-3.3-22.3
		c-2.6-19.7-7.6-32-15.2-36.8c-7.5-4.8-22.6-7.3-45.1-7.3c-12,0-22.4,0.3-31.4,1v49.4v95c0,9.4,3.7,15.4,11,18
		c3.6,1.3,11.3,1.8,23.5,1.4c5.1,0,7.6,1.3,7.6,3.9c0,2.9-3.2,4.3-9.7,4.3H115c-4.5,0-10.7,0-18.4,0c-7.4,0-12.5,0-15.1,0H9.2
		c-6.1,0-9.2-1.3-9.2-3.9c0-2.6,5.6-4.2,16.7-4.8c11.1-0.6,17.7-2.2,19.6-4.6c1.9-2.5,2.9-10,2.9-22.6V30.9c-0.3-5.8-2-9.5-5.2-11
		s-11.5-2.4-25.3-2.7c-5.3,0-7.9-1.6-7.9-4.8C0.8,9.5,3.7,8,9.5,8h7.8c-0.6,0,15,0,46.8,0s58,0,78.3,0c54.6,0,88-1,100.3-2.9
		c0.3,4.2,1.3,16.4,2.9,36.4c1,13.6,2.3,25.7,3.9,36.4C250.3,82.4,250.6,86.3,250.6,89.5z"/>
	<path class="st0" d="M564.3,342.4c0,2.8-2.4,4.1-7.3,4.1c-3.2,0-6.1-0.2-8.7-0.5l-61.5-1.9l-61.5,1.9c-2.3,0.3-4.7,0.5-7.3,0.5
		c-6.5,0-9.7-1.7-9.7-5.1c0-3.8,4.3-5.6,13-5.6c28.4-0.3,42.7-3.1,42.7-8.5c0-0.3-0.3-1.6-1-3.8l-4-12.8l-2.5-6.8
		c-2.9-10-10-32.2-21.3-66.5H331.5c-19.4,51.7-29.1,81.5-29.1,89.2c0,4.5,1.9,7.3,5.8,8.2c1,0.3,9.1,1,24.2,1.9
		c9.4,0.3,14.1,1.9,14.1,4.8c0,3.2-4.2,4.8-12.6,4.8c-14.9,0-32.2-0.6-51.8-1.9c-4.8-0.3-9.9-0.4-15.1-0.4s-10.1,0.5-15,1.6
		c-2.6,0.5-4.6,0.9-6.4,0.9c-4.5,0-6.8-1.5-6.8-4.4s5.1-4.5,15.3-4.8c10.2-0.3,17.6-1.8,22.1-4.6c4.5-2.8,8.1-8,10.7-15.8
		c41.6-119.4,75.4-215.2,101.5-287.4c0.8-3.8,2.3-8.1,4.5-12.8l2-8.8c1-3.6,2.3-5.4,3.9-5.4c1,0,1.7,1,2.4,2.9
		c4.2,12.6,13.7,39,28.6,79.1c11.6,31.4,40.5,110,86.7,236.1c2.6,7.3,5.9,12,9.9,14s12.4,3.1,25,3.4
		C560.1,338.1,564.3,339.6,564.3,342.4z M433,226.2c-5.3-14.5-14-38.7-26.2-72.3l-23.3-67.2c-13.6,35.8-30.1,82.2-49.1,139.4H433
		V226.2z"/>
	<path class="st0" d="M769.9,250.9c0,27.8-10.6,51.5-31.8,71c-21.2,19.6-46.7,29.3-76.4,29.3c-17.5,0-38.4-5.4-62.6-16.1
		c-6.5-2.9-11.3-4.3-14.5-4.3c-3.9,0-6.4,4.5-7.3,13.5c-0.3,4.6-2.4,6.9-6.4,6.9c-3.2,0-4.8-1.9-4.8-5.8c0-2.6,0.1-4.5,0.5-5.8
		c2.6-19.7,3.9-37.9,3.9-54.7c0-3.2-0.3-12.3-1-27.2c-0.3-1.9-0.5-4.5-0.5-7.8c0-4.8,1.9-7.3,5.8-7.3c3.2,0,5.5,3.9,6.8,11.7
		c8.4,58.1,35.7,87.2,81.9,87.2c19.7,0,35-5.6,45.8-16.7s16.3-26.9,16.3-47.3c0-18.1-5.3-33.5-15.7-46.3
		c-10.6-12.7-28.6-25.4-54.1-38c-30.7-15.2-52-29.8-64-44.2c-12-14.2-17.9-31.8-17.9-52.8c0-26.8,8.6-49,26-66.5
		C617,12.3,639,3.5,665.5,3.5c11,0,26.2,3.8,45.6,11.2c6.8,2.6,11.7,3.9,15,3.9c3.6,0,5.9-0.6,7-1.9s2.2-4.6,3.1-10.1
		c0.6-3.2,2.4-4.8,5.4-4.8c3.2,0,4.8,1.9,4.8,5.8c0,2.6-0.2,4.5-0.5,5.8c-1,7.8-1.5,17.1-1.5,28.1c0,15.5,0.8,27.8,2.4,36.8l0.5,7.8
		c0.3,3.6-1.2,5.4-4.4,5.4c-3.6,0-6-3.7-7.3-11.2c-3.6-19.1-12-35-25.2-47.7c-12.8-12.7-27.7-19.2-44.2-19.2
		c-16.2,0-29,5.2-38.6,15.5S613.3,53.4,613.3,71c0,20.7,6.9,37.4,20.8,50c7.8,7.1,24.6,17.1,50.4,30.1
		c30.4,15.2,52.1,30.6,65.5,46.3C763.2,213.1,769.9,230.9,769.9,250.9z"/>
	<path class="st0" d="M1115.1,341.1c0,2.9-3,4.3-9.2,4.3h-66.4c-4.5,0-11.1,0-19.7,0c-8.6,0-15.1,0-19.3,0c-6.5,0-9.6-1.3-9.6-3.9
		c0-2.6,7.5-4.3,22.5-5.3c8-0.6,12.6-2,13.9-4.1c1.3-2,1.9-9.6,1.9-22.5V168.5h-146v137.2c0,14.5,1.1,23.2,3.3,25.7
		c2.3,2.6,9.8,4.3,22.7,5.4c8.4,0.6,12.6,2.2,12.6,4.3c0,2.9-3.2,4.3-9.7,4.3H908c-7.8,0-15.9,0-24.5,0s-13.7,0-15.3,0
		c-4.5,0-11.3,0-20.4,0s-22.6,0-40.7,0c-6.5,0-9.7-1.3-9.7-3.9c0-2.6,3.2-4.2,9.7-4.8c4.2-0.3,8.5-0.6,13-1
		c7.1-0.6,11.6-2.3,13.6-4.8c1-1.6,1.5-10.7,1.5-27.2V48.2c0-14.5-0.8-23.1-2.2-25.6s-6.6-4-15.3-4.3c-10-0.6-15.9-1.2-17.7-1.5
		s-2.7-1.7-2.7-4.1c0-2.7,2-4.1,6.4-4.1c1.3,0,4,0.2,8.2,0.5c8.1,0.6,27.2,1,57.2,1c16.5,0,27.9-0.2,34.4-0.8
		c2.3-0.4,5.2-0.8,8.7-0.8c5.8,0,8.7,1.6,8.7,4.8c0,2.9-5.3,4.4-15.7,4.4c-10.6,0-16.8,1.2-19,3.7s-3.1,10.1-3.1,23.1v111.8h146
		V51.8c0-17.1-1.3-27.4-3.9-30.4c-2.6-3.1-11.6-4.4-27.2-4.1c-4.8,0-7.3-1.4-7.3-4.4c0-2.9,2.7-4.4,8.2-4.4h2.4c4.5,0,12.4,0,23.8,0
		c11.6,0,20.4,0,26.2,0c19.7,0,33.1,0,40,0s11.4,0,13.4,0c6.8,0,10.1,1.5,10.1,4.3c0,2.9-7.1,4.5-21.3,4.8c-4.2,0-7.3,0.3-9.2,1
		c-3.2,1-5.3,2.8-6,5.3c-0.9,2.6-1.2,10.2-1.2,22.7v257.9c0,15.5,0.8,24.6,2.4,27.2c3.2,3.6,12.5,5.3,27.8,5.3
		C1112.5,336.6,1115.1,337.8,1115.1,341.1z"/>
	<path class="st0" d="M1268.7,341.4c0,2.8-1.9,4.1-5.8,4.1h-4.8c-1.9-1-23.9-1.4-65.9-1.4c-8.1,0-16.2,0.3-24.2,1
		c-4.2,0.3-10.7,0.5-19.4,0.5c-4.2,0-6.2-1.4-6.2-4.3c0-2.6,4.2-4,12.6-4.3c12.9-0.3,20.5-1.8,22.8-4.6c2.3-2.8,3.4-12.1,3.4-28
		v-256c0-15.8-0.9-24.8-2.5-26.7c-1.9-3.2-11-5.2-27-5.8c-6.2-0.3-9.4-1.4-9.4-3.4c0-2.6,1.9-3.9,5.8-3.9h65.9
		c4.8,0,14.3,0.2,28.3,0.5l18.5-0.5c5.2,0,7.9,1.4,7.9,4.1c0,2.5-7.2,4-21.5,4.6c-8.2,0.3-13.1,1.8-15,4.3
		c-1.8,2.6-2.7,9.4-2.7,20.4v258.9c0,18.4,0.8,28.4,2.4,30.1c3.6,3.6,14,5.7,31.5,6.2C1267,337.2,1268.7,338.6,1268.7,341.4z"/>
	<path class="st0" d="M1610,179.1c0,48.2-14.4,88.9-43.4,122.2s-64.4,50-106.4,50c-44.6,0-82.1-16.9-112.5-50.6
		s-45.6-75.4-45.6-124.9c0-50.4,14.7-91.7,43.8-123.9c29.2-32.1,66.7-48.3,112.3-48.3c43,0,79,16.8,108.1,50.4
		C1595.5,87.7,1610,129.4,1610,179.1z M1555.7,181.6c0-59.4-12.1-105.5-36.4-138.6c-15.2-20.8-36.4-31.1-63.6-31.1
		c-25.9,0-45.9,8-60.1,23.8c-26.2,29.2-39.3,76.7-39.3,142.4c0,52.1,9.2,92.8,27.4,121.5c18.2,28.9,43.8,43.3,76.8,43.3
		c30.7,0,53.9-13.6,69.3-40.8C1547.2,272.1,1555.7,231.8,1555.7,181.6z"/>
	<path class="st0" d="M1942.2,13.3c0,3.2-4.1,4.7-12.1,4.3h-10.7h-8.7c-5.2,0-8.2,0.9-9.2,2.7c-1,1.7-1.4,7.2-1.4,16.2v278.8
		c0,17.1-0.2,27.2-0.5,30.1s-1.3,4.3-2.9,4.3c-1.9,0-4.2-1.8-6.8-5.4l-61.9-90.7c-35.9-52.9-79.6-118.9-131-198.2v271.5
		c0.3,4.2,2.8,6.9,7.3,8.1s15.5,1.8,32.9,2.2c4.2,0,6.4,1.3,6.4,3.9c0,3.2-4.2,4.8-12.6,4.8c-2.9,0-12.1-0.5-27.7-1.5
		c-5.2-0.3-10.2-0.4-15.1-0.4c0.3,0-2.5,0.3-8.5,1s-15.1,1-27.4,1h-4.8c-7.4,0-11.1-1.5-11.1-4.4s3.2-4.4,9.7-4.4
		c19.1-0.3,30.2-1.5,33.2-3.7s4.6-8.9,4.6-20.7V73.6c0-26.8-5.5-43.7-16.5-50.5c-5.2-3.2-14.4-4.8-27.7-4.8
		c-8.4,0-12.6-1.7-12.6-5.1c0-3,2.4-4.6,7.3-4.6c6.5,0,14.7,0.3,24.8,1c10,0.6,15.3,1,16.1,1c1,0,5.5-0.1,13.6-0.4
		c10.7,0,21-0.5,31-1.5L1887,258.1V42.4c0-10-0.2-16.1-0.5-18.2c-0.3-2-1.6-3.7-3.9-4.8s-10-1.7-23.3-1.7c-11.6,0-17.5-1.4-17.5-4.3
		c0-3.2,3.9-4.8,11.6-4.8h17c4.2,0,8.7,0,13.6,0c5.2,0,8.3,0,9.3,0c0.3,0,3.2,0,8.7,0c5.2,0,10,0,14.5,0h15.1
		C1938.6,8.5,1942.2,10.1,1942.2,13.3z"/>
</g>
<rect x="2685.7" y="-237.9" class="st1" width="0" height="3.8"/>
<polygon class="st1" points="355.3,1042.9 359.1,1042.9 359.1,1042.9 "/>
</svg>
