<svg id="Layer_1" data-name="Layer 1" xmlns="http://www.w3.org/2000/svg" viewBox="0 0 2685.7 1280.8"><defs><style>.cls-1{fill:none;}</style></defs><title>Fashion-black-logo</title><path d="M250.6,264q0,6.78-4.85,6.78T239,258.51c-3.87-23.59-11.85-40.72-23.7-51.5-7.76-6.89-19.71-11.09-35.88-12.71q-8.72-1-38.78-1c-14.87,0-32.65.54-53.33,1.51V337.38q62.05.48,76.6-8t17.45-47.72c.65-7.44,2.59-11.21,5.82-11.21s4.85,2.37,4.85,7.33a66.65,66.65,0,0,1-.43,7.32c-1,22.31-1.51,43-1.51,62.06,0,24.57.54,44,1.51,58.18a36.25,36.25,0,0,1,.43,5.82q0,5.82-4.85,5.82-3.87,0-4.85-2.91c-.64-1.94-1.72-9.38-3.34-22.31q-3.87-29.56-15.19-36.84c-7.54-4.85-22.62-7.33-45.14-7.33q-17.94,0-31.35,1V493.06c0,9.37,3.66,15.41,11,18,3.55,1.29,11.31,1.83,23.48,1.4,5.07,0,7.65,1.29,7.65,3.88,0,2.91-3.23,4.31-9.69,4.31H9.16C3,520.64,0,519.35,0,516.76s5.6-4.2,16.7-4.85,17.67-2.15,19.61-4.63,2.91-10,2.91-22.63V205.4q-.49-8.73-5.17-11c-3.13-1.51-11.53-2.37-25.32-2.7-5.28,0-7.87-1.61-7.87-4.84,0-2.91,2.91-4.42,8.73-4.42H142.43q81.93,0,100.3-2.91c.33,4.2,1.3,16.38,2.91,36.42,1,13.57,2.27,25.74,3.88,36.41A71,71,0,0,1,250.6,264Z" transform="translate(0 237.9)"/><path d="M564.33,516.87c0,2.8-2.37,4.09-7.32,4.09a69,69,0,0,1-8.73-.54l-61.52-1.94-61.52,1.94a50.94,50.94,0,0,1-7.32.54c-6.47,0-9.7-1.72-9.7-5.06,0-3.77,4.31-5.6,13-5.6,28.44-.33,42.66-3.13,42.66-8.51a25.08,25.08,0,0,0-1-3.78l-4-12.82-2.48-6.78q-4.37-15-21.33-66.48H331.51q-29.08,77.58-29.09,89.21c0,4.52,1.94,7.33,5.82,8.19q1.45.48,24.24,1.94c9.37.32,14.11,1.94,14.11,4.84q0,4.86-12.6,4.85c-14.87,0-32.21-.64-51.82-1.94-4.85-.32-9.91-.43-15.09-.43a68.4,68.4,0,0,0-15,1.62,32.4,32.4,0,0,1-6.36.86c-4.52,0-6.79-1.51-6.79-4.42s5.07-4.52,15.3-4.84,17.56-1.84,22.09-4.64,8.08-8,10.67-15.84Q349.39,312.27,388.5,203.89A56.34,56.34,0,0,1,393,191.07l2.05-8.84c1-3.55,2.26-5.38,3.88-5.38,1,0,1.72,1,2.37,2.91q6.3,18.9,28.55,79.08,17.44,47,86.73,236.05c2.58,7.33,5.92,12,9.91,14s12.39,3.12,25,3.44C560.13,512.56,564.33,514.07,564.33,516.87ZM433,400.73q-7.92-21.83-26.18-72.3l-23.27-67.22q-20.37,53.64-49.13,139.41H433Z" transform="translate(0 237.9)"/><path d="M769.9,425.4q0,41.7-31.78,71c-21.23,19.61-46.65,29.3-76.39,29.3q-26.18,0-62.6-16.05c-6.46-2.91-11.31-4.31-14.54-4.31-3.88,0-6.36,4.53-7.33,13.47-.32,4.63-2.37,6.89-6.35,6.89-3.24,0-4.85-1.94-4.85-5.81a20.34,20.34,0,0,1,.54-5.82,423.51,423.51,0,0,0,3.87-54.73q0-4.86-1-27.15a47.53,47.53,0,0,1-.54-7.76c0-4.85,1.94-7.33,5.81-7.33,3.24,0,5.5,3.88,6.79,11.75Q594.18,516,663.45,516c19.72,0,35-5.61,45.79-16.7s16.27-26.94,16.27-47.3c0-18.1-5.28-33.51-15.73-46.33s-28.55-25.42-54.08-38c-30.71-15.19-52-29.84-64-44.17s-17.89-31.78-17.89-52.79q0-40.24,26-66.48C617,186.76,639,178,665.5,178c11,0,26.18,3.77,45.57,11.21,6.79,2.58,11.75,3.87,15,3.87,3.55,0,5.92-.64,7-1.93s2.16-4.64,3.13-10.13c.64-3.23,2.37-4.85,5.38-4.85,3.24,0,4.85,1.94,4.85,5.82a24.92,24.92,0,0,1-.54,5.82A230,230,0,0,0,744.36,216c0,15.51.76,27.79,2.37,36.84l.54,7.76c.33,3.55-1.18,5.39-4.41,5.39-3.56,0-6-3.67-7.33-11.21q-5.34-28.61-25.21-47.73c-12.82-12.71-27.69-19.17-44.17-19.17q-24.24,0-38.57,15.51c-9.59,10.34-14.33,24.46-14.33,42.13,0,20.68,6.89,37.38,20.79,50q11.64,10.66,50.42,30.06c30.38,15.19,52.15,30.59,65.51,46.32S769.9,405.36,769.9,425.4Z" transform="translate(0 237.9)"/><path d="M1115.09,515.58c0,2.9-3,4.31-9.16,4.31H1000.57c-6.47,0-9.59-1.3-9.59-3.88s7.54-4.31,22.52-5.28c8-.65,12.6-2.05,13.89-4.1s1.94-9.59,1.94-22.51V343h-146V480.13c0,14.54,1.07,23.16,3.34,25.75s9.8,4.31,22.73,5.39c8.4.64,12.61,2.15,12.61,4.31,0,2.9-3.24,4.31-9.7,4.31H807.18q-9.7,0-9.7-3.88t9.7-4.85c4.2-.32,8.51-.65,13-1q10.66-1,13.58-4.85c1-1.62,1.51-10.67,1.51-27.15V222.74c0-14.54-.76-23.05-2.16-25.64s-6.57-4-15.3-4.31c-10-.64-15.94-1.18-17.67-1.51s-2.69-1.72-2.69-4.09c0-2.69,2-4.09,6.36-4.09,1.29,0,4,.21,8.18.53q12.12,1,57.21,1c16.49,0,27.91-.21,34.37-.75a47,47,0,0,1,8.73-.75q8.73,0,8.73,4.84c0,2.91-5.28,4.42-15.73,4.42s-16.81,1.19-19,3.66-3.12,10.13-3.12,23.06V330.91h146V226.3c0-17.13-1.29-27.37-3.87-30.38s-11.64-4.42-27.15-4.1c-4.85,0-7.33-1.4-7.33-4.42s2.69-4.41,8.19-4.41h105.69c6.79,0,10.13,1.51,10.13,4.31s-7.11,4.52-21.34,4.85c-4.2,0-7.32.32-9.15,1-3.24,1-5.28,2.81-6,5.28s-1.18,10.24-1.18,22.74V479.05c0,15.52.75,24.57,2.37,27.15,3.23,3.56,12.5,5.28,27.8,5.28C1112.51,511.05,1115.09,512.34,1115.09,515.58Z" transform="translate(0 237.9)"/><path d="M1268.73,515.9c0,2.8-1.94,4.09-5.82,4.09h-4.85q-2.91-1.46-65.93-1.4-12.14,0-24.25,1c-4.2.33-10.66.54-19.39.54-4.2,0-6.25-1.4-6.25-4.31,0-2.58,4.2-4,12.61-4.31,12.93-.32,20.47-1.83,22.84-4.63s3.45-12.07,3.45-28v-256c0-15.84-.87-24.78-2.48-26.72-1.94-3.23-11-5.17-27-5.82-6.25-.32-9.38-1.4-9.38-3.44q0-3.88,5.82-3.88H1214c4.84,0,14.33.21,28.33.54l18.53-.54c5.17,0,7.87,1.4,7.87,4.09,0,2.48-7.22,4-21.55,4.63-8.19.33-13.14,1.84-15,4.31s-2.69,9.38-2.69,20.37V475.28c0,18.42.75,28.44,2.37,30.06,3.56,3.56,14,5.71,31.46,6.25C1267,511.7,1268.73,513.1,1268.73,515.9Z" transform="translate(0 237.9)"/><path d="M1610,353.65q0,72.23-43.42,122.17t-106.44,50q-66.92,0-112.48-50.64t-45.57-124.86q0-75.65,43.85-123.9t112.26-48.27q64.48,0,108.06,50.42Q1610.1,279,1610,353.65Zm-54.3,2.47q0-89-36.41-138.55-22.78-31.18-63.57-31.13-38.79,0-60.12,23.81-39.27,43.79-39.32,142.43c0,52.14,9.16,92.76,27.36,121.52s43.85,43.32,76.82,43.32c30.71,0,53.87-13.58,69.28-40.84C1547.23,446.62,1555.74,406.33,1555.74,356.12Z" transform="translate(0 237.9)"/><path d="M1942.2,187.84c0,3.23-4.09,4.74-12.07,4.31h-19.39c-5.17,0-8.19.86-9.16,2.69s-1.4,7.22-1.4,16.16V489.83c0,17.13-.21,27.15-.54,30.06s-1.29,4.3-2.91,4.3c-1.93,0-4.2-1.83-6.78-5.38l-62-90.72q-53.82-79.35-131-198.24v271.5c.32,4.21,2.8,6.9,7.32,8.08s15.52,1.84,32.86,2.16c4.21,0,6.36,1.29,6.36,3.88q0,4.85-12.6,4.85c-2.91,0-12.07-.54-27.69-1.51-5.18-.33-10.24-.43-15.09-.43.33,0-2.47.32-8.51,1s-15.08,1-27.36,1h-4.85c-7.44,0-11.1-1.51-11.1-4.42s3.23-4.42,9.7-4.42c19.07-.32,30.16-1.51,33.18-3.66s4.63-8.94,4.63-20.69V248.06c0-26.83-5.49-43.74-16.48-50.53-5.17-3.23-14.44-4.85-27.69-4.85-8.4,0-12.6-1.72-12.6-5.06,0-3,2.37-4.63,7.32-4.63,6.47,0,14.65.32,24.78,1s15.3,1,16,1c1,0,5.5-.11,13.58-.43,10.67,0,21-.54,31-1.51L1887,432.62V216.93c0-10-.22-16.06-.54-18.21a6.61,6.61,0,0,0-3.88-4.85c-2.26-1.08-10-1.72-23.27-1.72-11.64,0-17.45-1.41-17.45-4.31q0-4.86,11.63-4.85h78.22C1938.64,183,1942.2,184.6,1942.2,187.84Z" transform="translate(0 237.9)"/><path d="M248.34,716c0-.22-.11,1.29-.33,4.31q-.64,9.38-.64,18.1c0,.65.11,1.94.32,4a68.13,68.13,0,0,1,.32,7.21V751c0,1.4-.43,2.16-1.29,2.16s-1.62-.86-2.26-2.37c-1.51-3.56-3-5.82-4.53-7A41.13,41.13,0,0,1,212,754c-15.84,0-29-5.49-39.33-16.59s-15.62-25-15.62-41.8,4.74-30.71,14.33-41.48,21.87-16.06,37-16.06a48.26,48.26,0,0,1,13.14,1.4,59.84,59.84,0,0,1,12.17,5.61c2.37,1.4,4.1,2.15,5.39,2.15,1,0,1.83-.86,2.69-2.58,1.41-3,2.48-4.53,3.45-4.53a1.15,1.15,0,0,1,1.3,1.29,12.51,12.51,0,0,1-.33,2.16c-1.18,5.17-1.72,14.87-1.72,29.09,0,2.05-.22,3.23-.54,3.55a1.74,1.74,0,0,1-1.29.54c-1.08,0-1.83-1-2.16-3.12-1.4-8.62-3.34-15-5.92-19.18q-7.92-12.93-24.89-12.93-13.09,0-20.69,8.73c-9.15,10.45-13.79,25.75-13.79,45.9,0,18,3.77,32,11.32,41.8q9.85,12.93,26.18,12.93a29.75,29.75,0,0,0,15.29-4.1,27.34,27.34,0,0,0,10.67-11.2,64.91,64.91,0,0,0,5.93-17.89c.43-2.58,1.07-3.88,2.15-3.88C247.8,713.49,248.34,714.35,248.34,716Z" transform="translate(0 237.9)"/><path d="M345,739.24c0,2.8-.22,7.43-.54,13.9h-1.72c-.65,0-2.16-.11-4.64-.32s-5.28-.33-8.4-.33L262.56,752c-1.83,0-2.69-.53-2.69-1.4s1.5-1.18,4.41-1.5c4.1-.22,6.57-.65,7.33-1.41s1.18-2.69,1.18-6V650.79c0-4-.43-6.25-1.18-6.9s-3.66-1-8.62-1c-2.05,0-3.12-.54-3.12-1.83,0-1,.64-1.4,1.93-1.4h1.4c3.56.32,10.56.54,21.23.54,1,0,2.8-.11,5.6-.22s5.07-.21,6.9-.21h1.83c1.94,0,2.91.54,2.91,1.61a1.1,1.1,0,0,1-.86,1.19,32.61,32.61,0,0,1-5.61.43c-3.12.11-4.95.65-5.6,1.51s-.86,3.77-.86,8.51V748.4c2.91.11,7,.21,12.07.21,12.6,0,21.54-.64,26.71-1.94s8.62-3.77,10.56-7.32,2.91-8.3,3.24-14.44c.1-1.4.75-2.15,1.83-2.15,1.29,0,1.94.86,1.83,2.37v14.11Z" transform="translate(0 237.9)"/><path d="M456.16,696.58q0,24.07-14.43,40.72C432,748.4,420.29,754,406.28,754c-14.87,0-27.36-5.6-37.49-16.91S353.6,712,353.6,695.5c0-16.81,4.85-30.6,14.65-41.26s22.19-16.06,37.39-16.06c14.32,0,26.39,5.6,36.09,16.81S456.16,680,456.16,696.58Zm-18.1.75c0-19.82-4.09-35.12-12.06-46.22-5.07-6.89-12.07-10.34-21.12-10.34-8.62,0-15.3,2.69-20,8-8.73,9.7-13,25.53-13,47.51,0,17.35,3,30.92,9.15,40.51s14.66,14.44,25.64,14.44c10.24,0,17.89-4.53,23.17-13.58C435.26,727.5,438.06,714.14,438.06,697.33Z" transform="translate(0 237.9)"/><path d="M555.28,668.56c0,1.41-.64,2.16-1.94,2.16s-2.26-1.4-2.69-4.2q-.31-2.91-.65-5.82a29,29,0,0,0-3.77-9.91C544,647.23,540.31,645,535,644a42.6,42.6,0,0,0-8.08-.86c-5.07.11-8.19.21-9.16.32v97.61c0,3.88,1,6.36,3.13,7.33q1.61.81,9.05,1c1.29.11,1.93.54,1.93,1.4s-.86,1.4-2.58,1.4a13.1,13.1,0,0,1-2.26-.22c-6.47-.21-11.1-.32-13.79-.32-3.56,0-6.9.11-10,.22s-7.11.21-12,.21c-2.48,0-3.77-.43-3.77-1.29s2.26-1.51,7-1.62c3.34,0,5.49-.64,6.46-2.15.54-.86.87-3.13.87-6.68v-97c-10.67.11-17.24.65-19.94,1.62-6.78,2.48-10.77,9.16-12,19.93q-.48,4.85-2.26,4.85c-1.29,0-1.94-1.08-1.94-3.34a19.35,19.35,0,0,1,.22-3.56l.32-3.66c.33-5,.86-11.53,1.4-19.61H475l33,.54q5.82.17,18.1,0l26.82-.54c.22,6,.87,15,2.16,26.83a2.57,2.57,0,0,0,.21,1.18A2.8,2.8,0,0,0,555.28,668.56Z" transform="translate(0 237.9)"/><path d="M668.09,750.55c0,1-1,1.4-3,1.4H630q-3.24,0-3.24-1.29c0-.86,2.48-1.4,7.55-1.72,2.69-.22,4.2-.65,4.63-1.4s.65-3.24.65-7.55V692.91H591V738.7c0,4.85.32,7.76,1.07,8.62s3.23,1.4,7.54,1.72c2.81.22,4.21.76,4.21,1.51,0,1-1.08,1.4-3.24,1.4H565.41c-2.15,0-3.23-.43-3.23-1.29s1.08-1.4,3.23-1.62l4.31-.32q3.56-.32,4.53-1.61c.32-.54.43-3.56.43-9.05V652.83c0-4.84-.22-7.64-.76-8.51s-2.15-1.29-5.06-1.4c-3.34-.21-5.28-.43-5.93-.54s-.86-.53-.86-1.4.65-1.4,2-1.4c.43,0,1.29.11,2.8.22q4,.32,19.07.32c5.49,0,9.26-.11,11.53-.21a19.66,19.66,0,0,1,2.91-.22q2.91,0,2.91,1.62c0,1-1.73,1.5-5.28,1.5s-5.61.44-6.36,1.19-1.08,3.34-1.08,7.65v37.28h48.59V654c0-5.71-.43-9.16-1.29-10.13s-3.88-1.51-9-1.4c-1.62,0-2.37-.43-2.37-1.51s.86-1.51,2.69-1.51h35.34c2.26,0,3.45.54,3.45,1.41s-2.37,1.5-7.11,1.61a10.4,10.4,0,0,0-3,.32,3.09,3.09,0,0,0-2.05,1.73c-.32.86-.43,3.45-.43,7.54v86.3c0,5.17.22,8.19.76,9,1.07,1.18,4.2,1.83,9.26,1.83C667.22,749.05,668.09,749.48,668.09,750.55Z" transform="translate(0 237.9)"/><path d="M719.26,750.55c0,1-.64,1.4-1.94,1.4h-1.61c-.65-.32-8-.53-22-.53-2.7,0-5.39.1-8.08.32-1.4.11-3.56.21-6.47.21-1.4,0-2.15-.53-2.15-1.4s1.4-1.29,4.2-1.51c4.31-.1,6.79-.64,7.54-1.5s1.08-4,1.08-9.38V652.94c0-5.28-.32-8.29-.86-8.94-.65-1.08-3.67-1.72-9-1.94-2.05-.11-3.13-.43-3.13-1.18s.65-1.3,1.94-1.3h22c1.62,0,4.74.11,9.48.22l6.14-.22c1.73,0,2.59.43,2.59,1.4s-2.37,1.3-7.22,1.51c-2.69.11-4.42.65-5,1.4s-.86,3.13-.86,6.79V737c0,6.14.22,9.48.86,10,1.19,1.18,4.64,1.94,10.56,2.15C718.72,749.26,719.26,749.69,719.26,750.55Z" transform="translate(0 237.9)"/><path d="M827.43,641.31c0,1.07-1.4,1.61-4.09,1.4h-6.47c-1.72,0-2.69.32-3,.86s-.54,2.37-.54,5.39v93c0,5.71-.11,9.05-.22,10s-.43,1.4-1,1.4-1.4-.64-2.26-1.83l-20.69-30.27q-17.94-26.5-43.63-66v90.51A3,3,0,0,0,748,748.4c1.51.43,5.17.64,11,.75,1.4,0,2.15.43,2.15,1.3,0,1.07-1.4,1.61-4.2,1.61-1,0-4.09-.21-9.16-.54-1.72-.1-3.34-.21-4.95-.21.1,0-.87.11-2.8.32s-5.07.32-9.16.32h-1.62c-2.48,0-3.77-.53-3.77-1.5s1.08-1.51,3.23-1.51c6.36-.11,10-.54,11.1-1.19s1.51-3,1.51-6.89V661q0-13.41-5.5-16.8c-1.72-1.08-4.84-1.62-9.15-1.62-2.81,0-4.21-.54-4.21-1.72,0-1,.87-1.51,2.37-1.51,2.16,0,4.85.1,8.3.32s5.06.32,5.28.32,1.83,0,4.52-.1c3.56,0,7-.22,10.35-.54l55.81,83.17V650.68a51.76,51.76,0,0,0-.22-6,2.35,2.35,0,0,0-1.29-1.62c-.76-.32-3.34-.54-7.76-.54-3.88,0-5.82-.43-5.82-1.4s1.29-1.61,3.88-1.61h26C826.25,639.69,827.43,640.23,827.43,641.31Z" transform="translate(0 237.9)"/><path d="M940.56,718c0,.86-.54,1.29-1.4,1.29h-3.78c-5-.22-7.75.65-8.4,2.58-.43,1.3-.65,5.93-.65,14v5.17a53.86,53.86,0,0,1-15.94,10A51.86,51.86,0,0,1,892.07,754c-17,0-30.49-5.06-40.61-15.3s-15-24-15-41.48c0-17.67,4.85-31.89,14.65-42.88S873.87,638,889.92,638q10.5,0,23,5.81a14.78,14.78,0,0,0,6.14,1.73c2,0,3.45-1.29,4.09-3.88.54-1.51,1.19-2.26,1.94-2.26a1.14,1.14,0,0,1,1.29,1.29c0,.32-.1,1.51-.32,3.45-.54,6.14-.86,10.56-.86,13.25v10.56c.11,3.77.22,5.49.22,5.06-.22,2.59-1,3.88-2.16,3.88-1,0-1.51-.75-1.62-2.26-.53-10.45-3.55-18.75-9.05-24.78s-12.71-9.05-21.65-9.05c-11.21,0-20,5.06-26.61,15.08s-9.81,23.7-9.81,41c0,16.59,3.34,29.84,9.92,39.65S880,751.2,891.32,751.2q12.93,0,17.78-7.43c1.61-2.48,2.37-6.9,2.37-13.36,0-5.39-.54-8.52-1.51-9.48s-4.53-1.41-10.56-1.3a14.82,14.82,0,0,1-2.91-.21,1.09,1.09,0,0,1-.65-1.08c0-1.19,1.19-1.72,3.56-1.72h2.91q2.43.15,17.13,0h17.78C939.48,716.62,940.56,717.05,940.56,718Z" transform="translate(0 237.9)"/><path d="M1106.15,695.93c0,19.07-6.68,33.83-19.93,44.39-9.7,7.76-22.73,11.63-38.9,11.63h-43.63c-2.05,0-3.12-.53-3.12-1.61s1.72-1.4,5.17-1.4c4.42,0,7.11-.86,8.19-2.37.43-.76.64-2.8.64-6.14V653.27c0-5.28-.43-8.3-1.18-9.16s-3.56-1.3-8.3-1.3c-2.48,0-3.77-.53-3.77-1.72,0-.86.86-1.29,2.8-1.29h28.12c19.39,0,33.18,1.4,41.16,4.09,9.8,3.23,17.67,9.7,23.7,19.18S1106.15,683.43,1106.15,695.93Zm-18.1-.65c0-18-3.56-31.13-10.56-39.43s-18-12.6-32.86-12.6c-7.22,0-11.63.75-13.14,2.26q-1,1.13-1,7.76v86.19a47.49,47.49,0,0,0,.21,5.49,2.9,2.9,0,0,0,1.4,1.62c2.59,1.29,8,1.94,16.27,1.94q17.46,0,28.12-12.29C1084.28,727.61,1088.05,713.92,1088.05,695.28Z" transform="translate(0 237.9)"/><path d="M1203.65,726c0,.43-.1,3.12-.32,8s-.32,9.48-.32,13.9v5.39q-15.84-1-62.71-1h-20.14c-2.05,0-3-.43-3-1.3a.91.91,0,0,1,1-1c.32,0,2.37-.1,6.14-.43,2.8-.21,4.52-.86,5.06-1.83s.87-3.55.87-7.65V649c0-3.13-.44-5-1.41-5.61s-3.87-.86-8.83-.86c-1.72,0-2.59-.43-2.59-1.4s1.19-1.4,3.56-1.4h68.52a53.87,53.87,0,0,0,8.84-.65c.21,4.64.64,11.1,1.5,19.18l.65,7a11,11,0,0,1,.22,2.16c0,1.08-.54,1.62-1.51,1.62-1.19,0-2.05-1.41-2.59-4.1-2-9.8-5.38-15.94-10-18.53q-5.18-2.91-27.15-2.91h-13.25V691H1150c12.07,0,19.39-.86,22.09-2.69s4.41-7.11,5.38-15.94c.22-2.27.86-3.45,1.83-3.45,1.19,0,1.73,1,1.73,2.91s-.11,4.84-.33,8.62-.32,6.57-.32,8.51c0,11.53.22,19.5.54,23.81a25.7,25.7,0,0,1,.11,2.69c0,1.4-.54,2.16-1.73,2.16-.75,0-1.29-.44-1.5-1.41s-.76-3.87-1.41-8.94c-.86-6.35-3.44-10.23-7.86-11.85-1.94-.65-7-1-15.08-1h-7.22v54.09c23.7,0,37.6-.43,41.69-1.4,7.11-1.62,11.21-8.41,12.07-20.47.21-2.7.86-4,2.15-4C1203.11,722.54,1203.65,723.73,1203.65,726Z" transform="translate(0 237.9)"/><path d="M1310.75,641.31c0,1.07-1.41,1.61-4.1,1.4h-6.46c-1.73,0-2.7.32-3.13.86s-.43,2.37-.43,5.39v93c0,5.71-.11,9.05-.21,10s-.43,1.4-1,1.4-1.4-.64-2.27-1.83l-20.68-30.27q-17.94-26.5-43.64-66v90.51a3,3,0,0,0,2.48,2.69c1.51.43,5.17.64,11,.75,1.4,0,2.16.43,2.16,1.3,0,1.07-1.4,1.61-4.21,1.61-1,0-4.09-.21-9.15-.54-1.73-.1-3.45-.21-5.07-.21.11,0-.86.11-2.8.32s-5.06.32-9.16.32h-1.61c-2.48,0-3.77-.53-3.77-1.5s1.07-1.51,3.23-1.51c6.36-.11,10-.54,11.1-1.19s1.5-3,1.5-6.89V661q0-13.41-5.49-16.8c-1.72-1.08-4.85-1.62-9.27-1.62-2.8,0-4.2-.54-4.2-1.72,0-1,.86-1.51,2.37-1.51,2.16,0,4.85.1,8.19.32s5.06.32,5.39.32,1.83,0,4.52-.1c3.56,0,7-.22,10.35-.54l55.8,83.17V650.68c0-3.34-.1-5.39-.1-6a2.34,2.34,0,0,0-1.3-1.62c-.75-.32-3.34-.54-7.75-.54-3.88,0-5.82-.43-5.82-1.4s1.29-1.61,3.88-1.61h26C1309.56,639.69,1310.75,640.23,1310.75,641.31Z" transform="translate(0 237.9)"/><path d="M1433.57,750.88c0,1-1.08,1.4-3.34,1.4H1390c-2.26,0-3.34-.54-3.34-1.51s1.51-1.62,4.63-1.62c5.5,0,8.84-.64,10-1.83.54-.54.87-4.2.87-10.88V652.62c0,.11-.65,2-1.94,5.6q-6.46,19.56-18.86,58.83l-7.54,25.75c-1.51,5.06-2.59,7.65-3.23,7.65s-1.62-1.3-2.48-3.88q-4.68-14.72-26.4-73.37L1335.31,656v61c0,19.72.22,29.73.54,29.95.75,1.4,3.34,2.15,7.76,2.15,3.55,0,5.38.54,5.38,1.62s-1.07,1.83-3.45,1.83a22.11,22.11,0,0,1-3.87-.32,28.92,28.92,0,0,0-4.1-.32l-18.53.64c-1.94,0-2.91-.54-2.91-1.51s3-1.72,9.16-1.83c2.59,0,4.09-.43,4.53-1.29s.64-3.66.64-8.4V661.88q0-13.41-.32-14.54a4.61,4.61,0,0,0-2.7-3.12c-1.4-.54-4.41-1-9-1.3-1.72-.11-2.58-.54-2.58-1.4,0-1.18,1.62-1.83,4.74-1.83h11.31c6.47,0,11,0,13.58-.11.54,1.4,3.66,9.91,9.37,25.43q3.72,9.69,20.69,56.56c2-7,4.09-13.9,6.24-20.68L1399,647.45c1.08-3.13,2-5.6,2.8-7.65l23.92-.11c3.56,0,5.5.22,6,.54a1.64,1.64,0,0,1,.75,1.51c0,1.07-1,1.61-2.8,1.61a36.76,36.76,0,0,0-6.14.33c-2.59.43-4.42,1.29-5.39,2.58-.54.76-.86,7.11-.86,19v75.42c0,4.31.43,6.9,1.29,7.65,1.4,1,4.85,1.51,10.56,1.51h1C1432.49,749.58,1433.57,750,1433.57,750.88Z" transform="translate(0 237.9)"/><path d="M1539.47,750.88c0,1-.86,1.4-2.37,1.4-1.07,0-2-.11-2.91-.11l-20.47-.65-20.47.65a17,17,0,0,1-2.37.11c-2.15,0-3.23-.54-3.23-1.73s1.4-1.83,4.31-1.83c9.48-.11,14.22-1.08,14.22-2.8a8.49,8.49,0,0,0-.32-1.29l-1.29-4.31-.87-2.26c-1-3.34-3.34-10.78-7.11-22.2H1462q-9.69,25.86-9.7,29.74a2.43,2.43,0,0,0,1.94,2.69c.33.11,3,.32,8.08.65,3.13.1,4.74.64,4.74,1.61s-1.4,1.62-4.2,1.62c-4.95,0-10.77-.22-17.24-.65-1.61-.1-3.34-.21-5.06-.21a24.55,24.55,0,0,0-5,.54,8.88,8.88,0,0,1-2.15.32c-1.51,0-2.26-.54-2.26-1.51s1.72-1.51,5.06-1.62,5.82-.64,7.33-1.5,2.69-2.7,3.55-5.28c13.9-39.76,25.11-71.76,33.83-95.78a17.59,17.59,0,0,1,1.51-4.31l.65-2.91c.32-1.19.75-1.83,1.29-1.83.32,0,.54.32.86,1,1.4,4.2,4.53,13,9.48,26.39q5.82,15.68,28.88,78.65c.86,2.48,1.94,4,3.34,4.64s4.09,1.07,8.29,1.18C1538.07,749.48,1539.47,750,1539.47,750.88Zm-43.85-38.68c-1.72-4.85-4.63-12.93-8.72-24.13l-7.76-22.41c-4.52,12-10,27.36-16.38,46.43h32.86Z" transform="translate(0 237.9)"/><path d="M1628.14,747.11q0,6.78-11.31,6.78a22.34,22.34,0,0,1-19.72-10.56,25.94,25.94,0,0,1-4-8.72c-.65-2.8-1.51-9.91-2.7-21.33-.64-6.9-2.9-11.75-6.68-14.66s-9.91-4.41-18.42-4.63v50.85c0,2.16,1.72,3.56,5.17,4.1,1,.11,3.45.21,7.44.32,1.4,0,2.15.43,2.15,1.29s-1,1.51-2.69,1.51h-37.93c-2.37,0-3.55-.54-3.55-1.51,0-.75,1.51-1.18,4.63-1.29,5.06-.11,7.76-.75,8.3-1.94.43-.54.64-2.58.64-6.25v-89.2c0-4.31-.43-6.9-1.4-7.76s-3.66-1.3-8.29-1.51c-2.7,0-4.1-.43-4.1-1.4s.86-1.62,2.59-1.62a8.86,8.86,0,0,1,1.4.22l21.55.43c2.15,0,5.17-.11,9-.22,4.31-.32,7.32-.43,9-.43,10,0,18,2.27,23.81,6.68a21.93,21.93,0,0,1,8.83,18.21,22.89,22.89,0,0,1-9,18.64c-6,5-14.22,7.76-24.56,8.62-1,.11-1.51.32-1.62.54,0,.43.54.64,1.62.64,11.31,1.94,19.07,5.93,23.38,12s7.11,16.81,8.51,32.54q1.29,13.25,9,13.25c1.61,0,2.37-.32,2.37-1,0-.11-.11-.21-.11-.32a7.73,7.73,0,0,1-.86-2.91c0-2.26,1.18-3.45,3.55-3.45C1626.85,743.12,1628.14,744.41,1628.14,747.11Zm-33.4-80.92c0-15.4-6.68-23.05-20-23.05-3.55,0-5.92.43-7.32,1.4s-1.94,2.69-1.94,5.17v41c10.34.11,17.78-1.83,22.41-5.6C1592.37,681.17,1594.74,674.92,1594.74,666.19Z" transform="translate(0 237.9)"/><path d="M1739.33,750.66c0,1-.76,1.51-2.26,1.51h-41.7c-2,0-3-.43-3-1.19s1.3-1.29,4.1-1.5c5.6-.54,8.4-1.4,8.4-2.7s-14.76-18.85-44.17-52.57v46.54c0,3.77.54,6.14,1.83,7s4.31,1.4,9.48,1.4c1.19,0,1.83.54,1.83,1.62s-.75,1.4-2.26,1.4H1634c-1.62,0-2.37-.43-2.37-1.4s1.94-1.62,5.93-1.72c3.66-.11,5.81-.87,6.46-2.38.32-.53.54-3.87.54-10.23v-90c-.11-2.26-3.13-3.34-8.94-3.34-2.7,0-4-.54-4-1.83,0-1,1-1.4,2.8-1.4.54,0,1.29.1,2.16.1q2.58.33,14.54.33c8.51,0,13.79-.11,16.16-.33,1.19-.1,2.48-.1,3.77-.1,1.94,0,2.91.64,2.91,1.72a1.07,1.07,0,0,1-.86,1.18,31,31,0,0,1-5.6.44c-3.13.1-5.07.53-5.61,1.29s-.86,3.23-.86,7.33V691.3l13.79-13.79q31.2-31.35,31.25-32.65c0-1.4-2.59-2.05-7.54-1.94-3.24.11-4.85-.43-4.85-1.61,0-.76.75-1.19,2.26-1.3s6.68-.21,15.62-.21h8.84c3.77,0,5.92.11,6.46.11,1.08.21,1.62.75,1.62,1.61,0,1.19-1.19,1.83-3.56,1.83-5-.1-8.19,0-9.59.33a8.39,8.39,0,0,0-4.2,2.69c-7,7.33-17.67,18.32-31.89,33.08l-4.31,4.09-2.05,2.26q1,1.14,8.08,8.73,13.58,14.06,39,45.14c3.55,4.31,6,6.9,7.32,7.76s4,1.4,7.87,1.62C1737.71,749.26,1739.33,749.8,1739.33,750.66Z" transform="translate(0 237.9)"/><rect class="cls-1" x="2685.7" height="3.8"/><polygon class="cls-1" points="355.3 1280.8 359.1 1280.8 359.1 1280.8 355.3 1280.8"/></svg>