<?xml version="1.0" encoding="utf-8"?>
<!-- Generator: Adobe Illustrator 23.0.6, SVG Export Plug-In . SVG Version: 6.00 Build 0)  -->
<svg version="1.1" id="Layer_1" xmlns="http://www.w3.org/2000/svg" xmlns:xlink="http://www.w3.org/1999/xlink" x="0px" y="0px"
	 viewBox="0 0 1942.2 376.1" style="enable-background:new 0 0 1942.2 376.1;" xml:space="preserve">
<style type="text/css">
	.st0{fill:#FFFFFF;}
	.st1{fill:none;}
</style>
<title>Fashion-logo2-White</title>
<path class="st0" d="M250.6,94.4c0,4.5-1.6,6.8-4.8,6.8s-5.5-4.1-6.8-12.3c-3.9-23.6-11.9-40.7-23.7-51.5
	c-7.8-6.9-19.7-11.1-35.9-12.7c-5.8-0.6-18.7-1-38.8-1c-14.9,0-32.6,0.5-53.3,1.5v142.5c41.4,0.3,66.9-2.4,76.6-8
	c9.7-5.6,15.5-21.5,17.5-47.7c0.6-7.4,2.6-11.2,5.8-11.2s4.8,2.4,4.8,7.3c0,2.4-0.1,4.9-0.4,7.3c-1,22.3-1.5,43-1.5,62.1
	c0,24.6,0.5,44,1.5,58.2c0.3,1.9,0.4,3.9,0.4,5.8c0,3.9-1.6,5.8-4.8,5.8c-2.6,0-4.2-1-4.8-2.9s-1.7-9.4-3.3-22.3
	c-2.6-19.7-7.6-32-15.2-36.8s-22.6-7.3-45.1-7.3c-12,0-22.4,0.3-31.4,1v144.4c0,9.4,3.7,15.4,11,18c3.6,1.3,11.3,1.8,23.5,1.4
	c5.1,0,7.6,1.3,7.6,3.9c0,2.9-3.2,4.3-9.7,4.3H9.2c-6.1,0-9.2-1.3-9.2-3.9s5.6-4.2,16.7-4.8s17.7-2.2,19.6-4.6s2.9-10,2.9-22.6V35.8
	c-0.3-5.8-2-9.5-5.2-11s-11.5-2.4-25.3-2.7c-5.3,0-7.9-1.6-7.9-4.8c0-2.9,2.9-4.4,8.7-4.4h132.9c54.6,0,88-1,100.3-2.9
	c0.3,4.2,1.3,16.4,2.9,36.4c1,13.6,2.3,25.7,3.9,36.4C250.2,86.6,250.6,90.5,250.6,94.4z"/>
<path class="st0" d="M564.3,347.3c0,2.8-2.4,4.1-7.3,4.1c-2.9,0-5.8-0.2-8.7-0.5l-61.5-1.9l-61.5,1.9c-2.4,0.3-4.9,0.5-7.3,0.5
	c-6.5,0-9.7-1.7-9.7-5.1c0-3.8,4.3-5.6,13-5.6c28.4-0.3,42.7-3.1,42.7-8.5c-0.2-1.3-0.6-2.6-1-3.8l-4-12.8l-2.5-6.8
	c-2.9-10-10-32.2-21.3-66.5H331.5c-19.4,51.7-29.1,81.5-29.1,89.2c0,4.5,1.9,7.3,5.8,8.2c1,0.3,9.1,1,24.2,1.9
	c9.4,0.3,14.1,1.9,14.1,4.8c0,3.2-4.2,4.8-12.6,4.8c-14.9,0-32.2-0.6-51.8-1.9c-4.8-0.3-9.9-0.4-15.1-0.4c-5,0-10.1,0.5-15,1.6
	c-2.1,0.5-4.2,0.8-6.4,0.9c-4.5,0-6.8-1.5-6.8-4.4s5.1-4.5,15.3-4.8c10.2-0.3,17.6-1.8,22.1-4.6s8.1-8,10.7-15.8
	c41.6-119.4,75.4-215.2,101.5-287.4c1-4.4,2.5-8.7,4.5-12.8l2-8.8c1-3.6,2.3-5.4,3.9-5.4c1,0,1.7,1,2.4,2.9
	c4.2,12.6,13.7,39,28.6,79.1c11.6,31.4,40.5,110.1,86.7,236.1c2.6,7.3,5.9,12,9.9,14s12.4,3.1,25,3.4
	C560.1,343,564.3,344.5,564.3,347.3z M433,231.1c-5.3-14.5-14-38.7-26.2-72.3l-23.3-67.2c-13.6,35.8-30.1,82.2-49.1,139.4H433V231.1
	z"/>
<path class="st0" d="M769.9,255.8c0,27.8-10.6,51.5-31.8,71c-21.2,19.6-46.7,29.3-76.4,29.3c-17.5,0-38.4-5.4-62.6-16.1
	c-6.5-2.9-11.3-4.3-14.5-4.3c-3.9,0-6.4,4.5-7.3,13.5c-0.3,4.6-2.4,6.9-6.4,6.9c-3.2,0-4.8-1.9-4.8-5.8c-0.1-1.9,0.1-3.9,0.5-5.8
	c2.5-18.1,3.8-36.4,3.9-54.7c0-3.2-0.3-12.3-1-27.2c-0.4-2.6-0.5-5.2-0.5-7.8c0-4.8,1.9-7.3,5.8-7.3c3.2,0,5.5,3.9,6.8,11.7
	c8.4,58.1,35.7,87.2,81.9,87.2c19.7,0,35-5.6,45.8-16.7c10.8-11.1,16.3-26.9,16.3-47.3c0-18.1-5.3-33.5-15.7-46.3
	c-10.6-12.7-28.6-25.3-54.1-38c-30.7-15.2-52-29.8-64-44.2c-12-14.2-17.9-31.8-17.9-52.8c0-26.8,8.6-49,26-66.5
	C617,17.2,639,8.4,665.5,8.4c11,0,26.2,3.8,45.6,11.2c6.8,2.6,11.7,3.9,15,3.9c3.6,0,5.9-0.6,7-1.9s2.2-4.6,3.1-10.1
	c0.6-3.2,2.4-4.8,5.4-4.8c3.2,0,4.8,1.9,4.8,5.8c0,1.9-0.1,3.9-0.5,5.8c-1.1,9.3-1.6,18.7-1.5,28.1c0,15.5,0.8,27.8,2.4,36.8
	l0.5,7.8c0.3,3.6-1.2,5.4-4.4,5.4c-3.6,0-6-3.7-7.3-11.2c-3.6-19.1-12-35-25.2-47.7c-12.8-12.7-27.7-19.2-44.2-19.2
	c-16.2,0-29,5.2-38.6,15.5s-14.3,24.5-14.3,42.1c0,20.7,6.9,37.4,20.8,50c7.8,7.1,24.6,17.1,50.4,30.1
	c30.4,15.2,52.1,30.6,65.5,46.3C763.2,218,769.9,235.8,769.9,255.8z"/>
<path class="st0" d="M1115.1,346c0,2.9-3,4.3-9.2,4.3h-105.4c-6.5,0-9.6-1.3-9.6-3.9s7.5-4.3,22.5-5.3c8-0.6,12.6-2,13.9-4.1
	s1.9-9.6,1.9-22.5V173.4h-146v137.2c0,14.5,1.1,23.2,3.3,25.7s9.8,4.3,22.7,5.4c8.4,0.6,12.6,2.2,12.6,4.3c0,2.9-3.2,4.3-9.7,4.3
	h-105c-6.5,0-9.7-1.3-9.7-3.9s3.2-4.2,9.7-4.8c4.2-0.3,8.5-0.6,13-1c7.1-0.6,11.6-2.3,13.6-4.8c1-1.6,1.5-10.7,1.5-27.2V53.1
	c0-14.5-0.8-23.1-2.2-25.6s-6.6-4-15.3-4.3c-10-0.6-15.9-1.2-17.7-1.5s-2.7-1.7-2.7-4.1c0-2.7,2-4.1,6.4-4.1c1.3,0,4,0.2,8.2,0.5
	c8.1,0.6,27.2,1,57.2,1c16.5,0,27.9-0.2,34.4-0.8c2.9-0.5,5.8-0.8,8.7-0.8c5.8,0,8.7,1.6,8.7,4.8c0,2.9-5.3,4.4-15.7,4.4
	c-10.6,0-16.8,1.2-19,3.7s-3.1,10.1-3.1,23.1v111.8h146V56.7c0-17.1-1.3-27.4-3.9-30.4s-11.6-4.4-27.2-4.1c-4.8,0-7.3-1.4-7.3-4.4
	s2.7-4.4,8.2-4.4h105.8c6.8,0,10.1,1.5,10.1,4.3s-7.1,4.5-21.3,4.8c-4.2,0-7.3,0.3-9.2,1c-3.2,1-5.3,2.8-6,5.3
	c-0.9,2.6-1.2,10.2-1.2,22.7v257.9c0,15.5,0.8,24.6,2.4,27.2c3.2,3.6,12.5,5.3,27.8,5.3C1112.5,341.5,1115.1,342.7,1115.1,346z"/>
<path class="st0" d="M1268.7,346.3c0,2.8-1.9,4.1-5.8,4.1h-4.8c-1.9-1-23.9-1.4-65.9-1.4c-8.1,0-16.2,0.3-24.2,1
	c-4.2,0.3-10.7,0.5-19.4,0.5c-4.2,0-6.2-1.4-6.2-4.3c0-2.6,4.2-4,12.6-4.3c12.9-0.3,20.5-1.8,22.8-4.6s3.4-12.1,3.4-28v-256
	c0-15.8-0.9-24.8-2.5-26.7c-1.9-3.2-11-5.2-27-5.8c-6.2-0.3-9.4-1.4-9.4-3.4c0-2.6,1.9-3.9,5.8-3.9h65.9c4.8,0,14.3,0.2,28.3,0.5
	l18.5-0.5c5.2,0,7.9,1.4,7.9,4.1c0,2.5-7.2,4-21.5,4.6c-8.2,0.3-13.1,1.8-15,4.3s-2.7,9.4-2.7,20.4v258.9c0,18.4,0.8,28.4,2.4,30.1
	c3.6,3.6,14,5.7,31.5,6.2C1267,342.1,1268.7,343.5,1268.7,346.3z"/>
<path class="st0" d="M1610,184c0,48.2-14.5,88.9-43.4,122.2s-64.4,49.9-106.4,50c-44.6,0-82.1-16.9-112.5-50.6
	s-45.6-75.4-45.6-124.9c0-50.4,14.7-91.7,43.8-123.9s66.7-48.3,112.3-48.3c43,0,79,16.8,108.1,50.4
	C1595.5,92.6,1610.1,134.3,1610,184z M1555.7,186.5c0-59.4-12.1-105.5-36.4-138.6c-15.2-20.8-36.4-31.1-63.6-31.1
	c-25.9,0-45.9,8-60.1,23.8c-26.2,29.2-39.3,76.7-39.3,142.4c0,52.1,9.2,92.8,27.4,121.5c18.2,28.9,43.8,43.3,76.8,43.3
	c30.7,0,53.9-13.6,69.3-40.8C1547.2,277,1555.7,236.7,1555.7,186.5z"/>
<path class="st0" d="M1942.2,18.2c0,3.2-4.1,4.7-12.1,4.3h-19.4c-5.2,0-8.2,0.9-9.2,2.7s-1.4,7.2-1.4,16.2v278.8
	c0,17.1-0.2,27.2-0.5,30.1s-1.3,4.3-2.9,4.3c-1.9,0-4.2-1.8-6.8-5.4l-61.9-90.7c-35.9-52.9-79.6-119-131-198.2v271.5
	c0.3,4.2,2.8,6.9,7.3,8.1s15.5,1.8,32.9,2.2c4.2,0,6.4,1.3,6.4,3.9c0,3.2-4.2,4.8-12.6,4.8c-2.9,0-12.1-0.5-27.7-1.5
	c-5.2-0.3-10.2-0.4-15.1-0.4c0.3,0-2.5,0.3-8.5,1s-15.1,1-27.4,1h-4.8c-7.4,0-11.1-1.5-11.1-4.4s3.2-4.4,9.7-4.4
	c19.1-0.3,30.2-1.5,33.2-3.7s4.6-8.9,4.6-20.7V78.5c0-26.8-5.5-43.7-16.5-50.5c-5.2-3.2-14.4-4.8-27.7-4.8c-8.4,0-12.6-1.7-12.6-5.1
	c0-3,2.4-4.6,7.3-4.6c6.5,0,14.7,0.3,24.8,1s15.3,1,16.1,1c1,0,5.5-0.1,13.6-0.4c10.7,0,21-0.5,31-1.5L1887,263V47.3
	c0-10-0.2-16.1-0.5-18.2c-0.4-2.2-1.9-4-3.9-4.8c-2.3-1.1-10-1.7-23.3-1.7c-11.6,0-17.5-1.4-17.5-4.3c0-3.2,3.9-4.8,11.6-4.8h78.2
	C1938.6,13.4,1942.2,15,1942.2,18.2z"/>
<rect x="2685.7" y="0" class="st1" width="0" height="3.8"/>
<polygon class="st1" points="355.3,1047.8 359.1,1047.8 359.1,1047.8 "/>
</svg>
