<svg id="Layer_1" data-name="Layer 1" xmlns="http://www.w3.org/2000/svg" viewBox="0 0 2613.04 1280.8"><defs><style>.cls-1{fill:#fff;}</style></defs><title>Fashion-white-logo</title><path class="cls-1" d="M305.34,257.69c0,4.2-1.51,6.3-4.5,6.3s-5.11-3.8-6.3-11.39q-5.4-32.81-22.05-47.85-10.8-9.57-33.3-11.85-8.1-.9-36-.91-20.7,0-49.5,1.36V325.64q57.6.45,71.1-7.42T241,273.89q.9-10.35,5.4-10.35c3,0,4.5,2.25,4.5,6.75a43.33,43.33,0,0,1-.45,6.75q-1.35,31.05-1.35,57.6,0,34.2,1.44,54a29.82,29.82,0,0,1,.36,5.4c0,3.6-1.5,5.4-4.48,5.4q-3.58,0-4.49-2.7T238.79,376q-3.58-27.45-14.11-34.2t-41.87-6.75q-16.59,0-29.12.9v134.1q0,13.07,10.23,16.65,4.89,1.8,21.8,1.35c4.74,0,7.12,1.2,7.12,3.6q0,4.05-9,4.05H81.24q-8.55,0-8.55-3.61t15.52-4.51q15.53-.9,18.23-4.29t2.7-21V203.28q-.47-8.13-4.79-10.16t-23.47-2.48c-4.87,0-7.29-1.49-7.29-4.48q0-4.07,8.1-4.07H205q76,0,93.15-2.7.44,5.85,2.7,33.75,1.35,18.9,3.6,33.75A78.32,78.32,0,0,1,305.34,257.69Z" transform="translate(-72.69 237.89)"/><path class="cls-1" d="M596.49,492.35q0,3.84-6.75,3.84a65.79,65.79,0,0,1-8.1-.45l-57.15-1.8-57.15,1.8a47.79,47.79,0,0,1-6.75.45c-6,0-9-1.57-9-4.71q0-5.19,12.15-5.19,39.58-.44,39.6-7.94a26.4,26.4,0,0,0-.92-3.52l-3.68-11.9-2.31-6.28q-4.05-14-19.78-61.71H380.46q-27,72-27,82.8,0,6.3,5.4,7.65,1.35.45,22.5,1.8,13,.45,13.05,4.5,0,4.5-11.7,4.5-20.7,0-48.15-1.8c-4.5-.29-9.16-.45-13.95-.45a64.12,64.12,0,0,0-13.95,1.5,30,30,0,0,1-5.85.75q-6.3,0-6.3-4.06t14.17-4.52q14.18-.44,20.48-4.29t9.9-14.67Q397,302.5,433.32,201.8a52.43,52.43,0,0,1,4.19-12l1.93-8.21c.9-3.3,2.09-4.95,3.6-4.95.9,0,1.64.9,2.25,2.7q5.83,17.55,26.54,73.35,16.2,43.65,80.55,219.15,3.6,10.19,9.23,13t23.18,3.24Q596.49,488.53,596.49,492.35ZM474.58,384.59,450.3,317.52l-21.62-62.38q-19,49.8-45.62,129.45Z" transform="translate(-72.69 237.89)"/><path class="cls-1" d="M787.28,407.54q0,38.71-29.47,65.93t-70.88,27.22q-24.3,0-58-14.85-9-4.05-13.5-4-5.4,0-6.75,12.46-.45,6.44-5.85,6.44-4.5,0-4.5-5.4a24,24,0,0,1,.45-5.4,392.74,392.74,0,0,0,3.6-50.85q0-4.49-.9-25.2a45.73,45.73,0,0,1-.45-7.2q0-6.75,5.4-6.75,4.5,0,6.3,10.91,11.7,80.9,76.05,80.89,27.45,0,42.53-15.52t15.07-43.88q0-25.2-14.62-43T681.53,354q-42.75-21.15-59.4-40.95T605.48,264q0-37.35,24.08-61.65t61-24.3q15.3,0,42.3,10.35c6.3,2.41,10.95,3.6,13.95,3.6,3.3,0,5.47-.6,6.53-1.8s2-4.34,2.92-9.45q.9-4.5,4.95-4.5,4.5,0,4.5,5.4a23.87,23.87,0,0,1-.45,5.4,214.83,214.83,0,0,0-1.35,26.1q0,21.6,2.25,34.2l.45,7.2c.3,3.31-1.05,5-4.05,5-3.3,0-5.55-3.44-6.75-10.35q-4.95-26.55-23.4-44.32T691,187q-22.5,0-35.77,14.4t-13.28,39.15q0,28.8,19.35,46.35,10.8,9.9,46.8,27.9,42.3,21.17,60.75,43T787.28,407.54Z" transform="translate(-72.69 237.89)"/><path class="cls-1" d="M1107.68,491.24c0,2.7-2.84,4.05-8.49,4.05h-97.78q-8.94,0-8.93-3.59t20.88-4.94q11.1-.88,12.89-3.81t1.78-20.87V331H892.58V458.39q0,20.25,3.15,23.85t21.15,4.95c7.8.61,11.7,1.95,11.7,4.05q0,4-9,4.05H821.93c-6,0-9-1.19-9-3.59s3-3.89,9-4.5l12.15-.9c6.59-.59,10.8-2.09,12.6-4.49q1.35-2.25,1.35-25.16V219.4q0-20.22-2-23.82t-14.17-4q-14-.94-16.43-1.42t-2.47-3.79c0-2.52,2-3.79,5.85-3.79,1.19,0,3.75.16,7.65.45q11.24.91,53.1.9,23,0,32-.67a39.64,39.64,0,0,1,8.1-.68q8.1,0,8.1,4.51,0,4.08-14.63,4.07t-17.55,3.39q-2.93,3.38-2.92,21.44V319.79H1028V222.72q0-23.91-3.6-28.21t-25.2-3.84c-4.5,0-6.75-1.35-6.75-4.07s2.54-4.06,7.65-4.06h98.1q9.45,0,9.45,4.05t-19.8,4.5a29.35,29.35,0,0,0-8.55.9q-4.5,1.35-5.63,4.95t-1.12,21.15v239.4q0,21.6,2.22,25.2,4.44,5,25.77,4.95C1105.31,487,1107.68,488.25,1107.68,491.24Z" transform="translate(-72.69 237.89)"/><path class="cls-1" d="M1250.32,491.47q0,3.82-5.4,3.82h-4.5q-2.7-1.35-61.2-1.35-11.25,0-22.5.9-5.85.45-18,.45-5.85,0-5.85-4.05,0-3.6,11.7-4.05,18-.45,21.15-4.28t3.15-26V219.53q0-22.11-2.28-24.83-2.73-4.5-25.06-5.41-8.65-.39-8.66-3.18c0-2.37,1.82-3.57,5.44-3.57h61.23q6.78,0,26.29.45l17.24-.45q7.25,0,7.25,3.84,0,3.42-20,4.26-11.4.45-13.9,4.05t-2.51,18.9v240.3q0,25.65,2.25,27.9,5,5,29.25,5.85Q1250.32,487.64,1250.32,491.47Z" transform="translate(-72.69 237.89)"/><path class="cls-1" d="M1567.12,340.94q0,67.05-40.27,113.4t-98.78,46.35q-62.1,0-104.4-47t-42.3-115.88q0-70.2,40.73-115T1426.27,178q59.85,0,100.35,46.8T1567.12,340.94Zm-50.4,2.26q0-82.59-33.75-128.63-21.15-28.87-59-28.88-36,0-55.8,22.11-36.45,40.63-36.45,132.24,0,72.68,25.43,112.84T1428.52,493q42.75,0,64.35-37.91Q1516.72,413.16,1516.72,343.2Z" transform="translate(-72.69 237.89)"/><path class="cls-1" d="M1875.36,187q0,4.5-11.25,4.05h-18q-7.2,0-8.55,2.48c-.89,1.64-1.35,6.66-1.35,15V467.44q0,23.82-.45,27.86t-2.68,4q-2.7,0-6.28-5l-57.5-84.22q-50-73.68-121.63-184v252q.45,5.86,6.82,7.45t30.46,2q5.91,0,5.91,3.6,0,4.5-11.69,4.5-4.07,0-25.66-1.35c-4.8-.29-9.45-.45-14-.45q.45,0-7.87.9t-25.43.9h-4.5q-10.35,0-10.34-4.06c0-2.7,3-4.05,9-4.05q26.53-.45,30.82-3.38t4.27-19.15V242.92q0-37.41-15.3-46.87-7.2-4.5-25.65-4.51c-7.8,0-11.7-1.57-11.7-4.74q0-4.26,6.75-4.26,9,0,23,.9c9.3.61,14.25.9,14.86.9q1.33,0,12.59-.45,14.87,0,28.8-1.35l155.25,231.74V214q0-13.95-.45-16.87a6,6,0,0,0-3.6-4.5q-3.15-1.57-21.59-1.58-16.22,0-16.21-4.05c0-3,3.6-4.5,10.8-4.5h72.45C1872.06,182.54,1875.36,184.05,1875.36,187Z" transform="translate(-72.69 237.89)"/><path class="cls-1" d="M303.22,677.17c0-.2-.1,1.16-.3,4.05q-.6,8.7-.6,16.8c0,.6.1,1.83.3,3.68a63.24,63.24,0,0,1,.3,6.67v1.35q0,1.95-1.2,1.95t-2.1-2.25q-2.1-4.95-4.2-6.45-10.8,9.45-25.95,9.45-22.05,0-36.53-15.37t-14.47-38.78q0-23.53,13.27-38.47T266,604.87a47.05,47.05,0,0,1,12.22,1.28,51.61,51.61,0,0,1,11.33,5.17c2.2,1.31,3.85,1.95,4.95,1.95q1.35,0,2.55-2.4c1.3-2.79,2.35-4.2,3.15-4.2a1.06,1.06,0,0,1,1.2,1.2,10.27,10.27,0,0,1-.3,2q-1.65,7.2-1.65,27,0,2.85-.45,3.3a1.62,1.62,0,0,1-1.2.45c-1,0-1.65-.94-1.95-2.85q-2-12-5.55-17.85-7.35-12-23.1-12-12.15,0-19.2,8.1-12.75,14.56-12.75,42.6,0,25.06,10.5,38.85a29,29,0,0,0,24.3,12,27.41,27.41,0,0,0,14.25-3.82,25.75,25.75,0,0,0,9.9-10.43,60.43,60.43,0,0,0,5.55-16.65q.6-3.6,2-3.6T303.22,677.17Z" transform="translate(-72.69 237.89)"/><path class="cls-1" d="M392.92,698.77c0,2.61-.15,6.9-.45,12.9h-1.65c-.6,0-2-.1-4.34-.3s-4.89-.3-7.78-.3l-62.28-.45q-2.55,0-2.55-1.35,0-1,4.05-1.35,5.7-.3,6.82-1.27c.75-.65,1.13-2.52,1.13-5.63v-84.3c0-3.69-.38-5.85-1.13-6.45s-3.42-.9-8-.9c-1.9,0-2.85-.54-2.85-1.65q0-1.35,1.8-1.35H317q5,.45,19.65.45c.9,0,2.65-.07,5.25-.22s4.75-.23,6.45-.23H350c1.8,0,2.7.51,2.7,1.5a1.06,1.06,0,0,1-.83,1.13,34.89,34.89,0,0,1-5.17.37q-4.35.15-5.18,1.43t-.82,7.87v88.5q4,.15,11.25.15,17.55,0,24.75-1.8t9.75-6.75c1.7-3.3,2.7-7.74,3-13.35.09-1.29.67-1.95,1.72-1.95,1.25,0,1.83.75,1.73,2.25v13Z" transform="translate(-72.69 237.89)"/><path class="cls-1" d="M496.12,659.17q0,22.37-13.43,37.8t-32.92,15.45q-20.7,0-34.8-15.67t-14.1-38.63q0-23.4,13.57-38.32t34.73-14.93q19.95,0,33.45,15.6T496.12,659.17Zm-16.8.76q0-27.52-11.25-42.88-7.05-9.62-19.65-9.63-12,0-18.6,7.38-12.15,13.53-12.15,44.07,0,24.23,8.47,37.62t23.78,13.38q14.25,0,21.45-12.63Q479.32,683.24,479.32,659.93Z" transform="translate(-72.69 237.89)"/><path class="cls-1" d="M588.07,633.22q0,1.95-1.8,1.95c-1.2,0-2-1.29-2.55-3.9l-.6-5.4a26.06,26.06,0,0,0-3.45-9.15q-3.15-5-10.35-6.3a33,33,0,0,0-7.5-.75q-7.05.21-8.55.3v90.59q0,5.41,2.85,6.76c1,.5,3.8.81,8.4.9,1.2.1,1.8.52,1.8,1.28s-.8,1.27-2.4,1.27a12.92,12.92,0,0,1-2.1-.15c-6-.19-10.25-.3-12.75-.3q-5,0-9.3.23t-11.1.22q-3.45,0-3.45-1.2,0-1.35,6.45-1.5,4.65,0,6-2c.5-.8.75-2.86.75-6.16V610q-14.85.16-18.45,1.5-9.45,3.46-11.1,18.45-.45,4.5-2.1,4.5t-1.8-3.15q0-1.63.15-3.3l.3-3.45q.45-6.88,1.35-18.15h6.75l30.6.45q5.4.16,16.8,0l24.9-.45q.3,8.42,1.95,24.9a5.41,5.41,0,0,0,.15,1.13A6.13,6.13,0,0,1,588.07,633.22Z" transform="translate(-72.69 237.89)"/><path class="cls-1" d="M692.77,709.27c0,.9-.95,1.35-2.83,1.35h-32.6c-2,0-3-.39-3-1.19s2.32-1.35,7-1.65c2.46-.2,3.9-.62,4.29-1.27s.6-3,.6-7V655.87H621.07v42.45q0,6.75,1,7.95c.69.81,3,1.35,7,1.65q3.9.32,3.9,1.35,0,1.35-3,1.35H597.52c-2,0-3-.39-3-1.19s1-1.3,3-1.5l4.05-.3c2.19-.2,3.6-.7,4.2-1.5.3-.5.45-3.29.45-8.39V618.66q0-6.74-.68-7.94c-.45-.79-2-1.25-4.72-1.35-3.1-.21-4.93-.36-5.48-.47s-.82-.52-.82-1.26.65-1.27,2-1.27c.39,0,1.25.06,2.55.15q3.74.32,17.7.3c5.1,0,8.64-.07,10.65-.22a13.09,13.09,0,0,1,2.7-.23c1.8,0,2.7.51,2.7,1.51s-1.63,1.35-4.88,1.35-5.2.38-5.85,1.13-1,3.14-1,7.15v34.61h45.15V619.77c0-5.32-.4-8.45-1.2-9.41s-3.6-1.37-8.4-1.28q-2.25,0-2.25-1.35c0-.9.84-1.36,2.55-1.36h32.7q3.15,0,3.15,1.35c0,.9-2.2,1.41-6.6,1.5a10.16,10.16,0,0,0-2.85.3,2.57,2.57,0,0,0-1.88,1.65,36.16,36.16,0,0,0-.37,7.05V698c0,4.8.24,7.61.74,8.4,1,1.11,3.85,1.65,8.59,1.65Q692.77,707.79,692.77,709.27Z" transform="translate(-72.69 237.89)"/><path class="cls-1" d="M740.32,709.35c0,.85-.61,1.27-1.81,1.27H737c-.59-.3-7.4-.45-20.39-.45q-3.76,0-7.5.3c-1.31.11-3.3.15-6,.15-1.31,0-2-.45-2-1.35s1.29-1.25,3.9-1.35c4-.09,6.34-.57,7-1.42s1-3.74,1-8.66V618.7c0-4.91-.26-7.67-.76-8.27q-.92-1.5-8.36-1.81c-1.92-.08-2.88-.44-2.88-1.06,0-.79.6-1.19,1.81-1.19h20.41c1.51,0,4.43.06,8.76.15l5.75-.15c1.61,0,2.42.43,2.42,1.28s-2.23,1.24-6.69,1.42c-2.53.11-4.07.56-4.63,1.35s-.83,2.91-.83,6.3v80.1c0,5.7.24,8.81.75,9.3q1.64,1.67,9.75,2C739.76,708.07,740.32,708.5,740.32,709.35Z" transform="translate(-72.69 237.89)"/><path class="cls-1" d="M840.66,607.87q0,1.51-3.75,1.35h-6c-1.6,0-2.55.28-2.85.83s-.45,2.22-.45,5v86.28q0,7.93-.15,9.29c-.1.89-.39,1.34-.89,1.34s-1.3-.55-2.09-1.65l-19.17-28.08q-16.68-24.56-40.55-61.32v84A2.65,2.65,0,0,0,767,707.4c1.41.35,4.8.58,10.15.67,1.32,0,2,.4,2,1.2q0,1.5-3.9,1.5-1.35,0-8.55-.45c-1.6-.09-3.15-.15-4.65-.15.1,0-.77.1-2.62.3s-4.68.3-8.48.3h-1.5q-3.45,0-3.45-1.35t3-1.35c5.9-.1,9.33-.47,10.28-1.13s1.42-2.77,1.42-6.38V626.5q0-12.46-5.1-15.62c-1.6-1-4.45-1.51-8.55-1.51-2.6,0-3.9-.52-3.9-1.58s.75-1.42,2.25-1.42q3,0,7.65.3c3.1.21,4.75.3,5,.3s1.7,0,4.2-.15q4.95,0,9.6-.45l51.75,77.25V616.87c0-3.09,0-5-.15-5.62a2,2,0,0,0-1.2-1.5q-1.05-.53-7.2-.53-5.4,0-5.4-1.35c0-1,1.2-1.5,3.6-1.5h24.15C839.56,606.37,840.66,606.88,840.66,607.87Z" transform="translate(-72.69 237.89)"/><path class="cls-1" d="M945.66,679.12q0,1.2-1.35,1.2h-3.45c-4.6-.19-7.2.6-7.8,2.39q-.6,1.8-.6,13v4.78a50.56,50.56,0,0,1-14.77,9.26,48.36,48.36,0,0,1-17,2.68q-23.7,0-37.65-14.17t-14-38.48q0-24.59,13.65-39.75t36-15.15q9.75,0,21.3,5.4a13.82,13.82,0,0,0,5.7,1.65q2.85,0,3.75-3.6c.5-1.39,1.1-2.1,1.8-2.1a1.06,1.06,0,0,1,1.2,1.2c0,.3-.09,1.35-.26,3.15-.52,5.7-.79,9.81-.79,12.3v9.75q.15,5.26.15,4.65-.3,3.6-1.95,3.6-1.35,0-1.5-2.1-.75-14.62-8.4-23t-20.1-8.37q-15.6,0-24.67,14t-9.08,38.06q0,23.16,9.23,36.78t25,13.61q12,0,16.5-6.86,2.25-3.43,2.25-12.4c0-5-.47-7.91-1.42-8.8s-4.23-1.3-9.83-1.2a9.86,9.86,0,0,1-2.7-.22.93.93,0,0,1-.6-1q0-1.65,3.3-1.65h2.7q2.25.16,15.9,0h16.5Q945.66,677.77,945.66,679.12Z" transform="translate(-72.69 237.89)"/><path class="cls-1" d="M1099.41,658.57q0,26.49-18.45,41.22-13.5,10.85-36.15,10.83h-40.65c-1.9,0-2.85-.49-2.85-1.5s1.6-1.35,4.8-1.35q6.15,0,7.65-2.25.6-1,.6-5.7V619q0-7.34-1.13-8.55c-.75-.79-3.32-1.2-7.72-1.2-2.3,0-3.45-.54-3.45-1.65q0-1.2,2.55-1.2h26.1q27,0,38.25,3.77,13.65,4.51,22,17.82T1099.41,658.57Zm-16.8-.6q0-25-9.75-36.63t-30.45-11.67q-10,0-12.15,2.11-.9,1.05-.9,7.22v80a32.2,32.2,0,0,0,.22,5.12,2.45,2.45,0,0,0,1.28,1.5q3.6,1.8,15.15,1.8,16.2,0,26.1-11.43Q1082.61,684,1082.61,658Z" transform="translate(-72.69 237.89)"/><path class="cls-1" d="M1189.86,686.47c0,.41-.1,2.85-.3,7.35s-.3,8.81-.3,12.9v4.95q-14.7-.9-58.2-.9h-18.75q-2.85,0-2.85-1.2c0-.54.3-.85.9-.94q.45,0,5.7-.41,3.9-.3,4.72-1.65t.83-7.07V614.94c0-2.91-.43-4.63-1.28-5.19s-3.57-.83-8.17-.83c-1.6,0-2.4-.42-2.4-1.27s1.1-1.28,3.3-1.28h63.6a51.22,51.22,0,0,0,8.25-.6q.3,6.47,1.35,17.85l.6,6.45A10.36,10.36,0,0,1,1187,632q0,1.5-1.35,1.5c-1.1,0-1.9-1.25-2.4-3.77q-2.85-13.59-9.3-17.21-4.8-2.71-25.2-2.72h-12.3v44.1h3.6q16.8,0,20.47-2.55t5-14.85q.3-3.15,1.65-3.15,1.65,0,1.65,2.7t-.3,7.95c-.2,3.51-.3,6.15-.3,8q0,16.06.48,22c.08,1,.12,1.86.12,2.55,0,1.31-.55,1.95-1.65,1.95-.69,0-1.17-.42-1.41-1.27s-.68-3.62-1.27-8.33q-1.2-8.85-7.32-10.95-2.68-.9-14-.9h-6.72v50.25q33,0,38.7-1.33,9.9-2.22,11.25-19c.2-2.47.85-3.71,1.95-3.71S1189.86,684.37,1189.86,686.47Z" transform="translate(-72.69 237.89)"/><path class="cls-1" d="M1289.3,607.87q0,1.51-3.75,1.35h-6c-1.6,0-2.55.28-2.85.83s-.45,2.22-.45,5v86.28q0,7.93-.15,9.29c-.1.89-.39,1.34-.89,1.34s-1.3-.55-2.09-1.65L1254,682.24q-16.68-24.56-40.55-61.32v84a2.64,2.64,0,0,0,2.28,2.49c1.41.35,4.8.58,10.15.67,1.32,0,2,.4,2,1.2q0,1.5-3.9,1.5-1.35,0-8.55-.45c-1.6-.09-3.15-.15-4.65-.15.1,0-.77.1-2.62.3s-4.68.3-8.48.3h-1.5q-3.45,0-3.45-1.35t3-1.35c5.9-.1,9.33-.47,10.28-1.13s1.42-2.77,1.42-6.38V626.5q0-12.46-5.1-15.62c-1.6-1-4.45-1.51-8.55-1.51-2.6,0-3.9-.52-3.9-1.58s.75-1.42,2.25-1.42q3,0,7.65.3c3.1.21,4.75.3,5,.3s1.7,0,4.2-.15q5,0,9.6-.45l51.75,77.25V616.87c0-3.09,0-5-.15-5.62a2,2,0,0,0-1.2-1.5q-1-.53-7.2-.53-5.4,0-5.4-1.35c0-1,1.2-1.5,3.6-1.5H1286C1288.2,606.37,1289.3,606.88,1289.3,607.87Z" transform="translate(-72.69 237.89)"/><path class="cls-1" d="M1403.3,709.65c0,.85-1,1.27-3.13,1.27h-37.38c-2.09,0-3.14-.45-3.14-1.35s1.45-1.5,4.35-1.5q7.65,0,9.3-1.65.75-.75.75-10.07V618.52q0,.16-1.8,5.25-6,18.15-17.48,54.58l-7,23.87c-1.4,4.71-2.4,7-3,7s-1.46-1.2-2.26-3.6q-4.32-13.65-24.49-68.13l-6-16v56.55q0,27.45.45,27.75c.7,1.31,3.1,1.95,7.2,1.95q4.95,0,5,1.5,0,1.65-3.15,1.65a20.16,20.16,0,0,1-3.6-.3,28.43,28.43,0,0,0-3.75-.3l-17.25.6q-2.7,0-2.7-1.35,0-1.5,8.55-1.65,3.6,0,4.2-1.2c.4-.8.6-3.41.6-7.81V627q0-12.47-.3-13.52a4.07,4.07,0,0,0-2.55-2.85c-1.3-.5-4.1-.91-8.4-1.21q-2.4-.14-2.4-1.35c0-1.09,1.47-1.65,4.4-1.65h10.47q9,0,12.59-.11.75,1.95,8.71,23.61,3.41,9,19.17,52.54,2.84-9.78,5.81-19.24l16-49.56c1-2.85,1.87-5.22,2.64-7.09l22.25-.15c3.26,0,5.14.16,5.63.46a1.47,1.47,0,0,1,.74,1.35q0,1.5-2.55,1.5a33.45,33.45,0,0,0-5.7.31q-3.6.6-5,2.4-.75,1.07-.75,17.6v70q0,6,1.2,7.07,1.95,1.35,9.75,1.35h.9C1402.3,708.37,1403.3,708.8,1403.3,709.65Z" transform="translate(-72.69 237.89)"/><path class="cls-1" d="M1501.55,709.64c0,.86-.75,1.28-2.25,1.28a21.93,21.93,0,0,1-2.7-.15l-19-.6-19,.6a15.93,15.93,0,0,1-2.25.15c-2,0-3-.52-3-1.57s1.35-1.73,4-1.73c8.8-.09,13.2-1,13.2-2.64a8.72,8.72,0,0,0-.3-1.18l-1.23-4-.77-2.1q-1.35-4.65-6.59-20.57h-32.07q-9,24-9,27.6a2.3,2.3,0,0,0,1.8,2.55c.3.11,2.8.3,7.5.6q4.35.15,4.35,1.5c0,1-1.3,1.5-3.9,1.5q-6.9,0-16-.6c-1.5-.09-3-.15-4.65-.15a21.58,21.58,0,0,0-4.65.5,9.75,9.75,0,0,1-2,.25q-2.1,0-2.1-1.35t4.73-1.51c3.15-.09,5.42-.57,6.82-1.42s2.5-2.49,3.3-4.9q19.29-55.38,31.41-89a17.22,17.22,0,0,1,1.4-4l.64-2.74q.45-1.65,1.2-1.65.45,0,.75.9,1.95,5.85,8.85,24.45,5.4,14.55,26.85,73.05,1.2,3.4,3.07,4.32t7.73,1.08C1500.25,708.32,1501.55,708.79,1501.55,709.64Zm-40.63-35.92-8.1-22.35-7.2-20.79q-6.33,16.59-15.21,43.14Z" transform="translate(-72.69 237.89)"/><path class="cls-1" d="M1583.9,706.12q0,6.3-10.5,6.3a20.89,20.89,0,0,1-18.3-9.75,22.77,22.77,0,0,1-3.67-8.1q-.83-3.9-2.48-19.8-.9-9.59-6.15-13.57t-17.1-4.28v47.25q0,3,4.8,3.75c.9.1,3.2.21,6.9.3,1.3,0,1.95.41,1.95,1.2s-.85,1.35-2.55,1.35h-35.25q-3.3,0-3.3-1.35,0-1,4.35-1.2,7.05-.13,7.65-1.8c.4-.49.6-2.45.6-5.85v-82.8c0-4-.43-6.39-1.27-7.2s-3.43-1.24-7.73-1.35q-3.75,0-3.75-1.35c0-1,.8-1.5,2.4-1.5a10.61,10.61,0,0,1,1.35.15l20,.45c2,0,4.8-.06,8.4-.2,4-.26,6.8-.4,8.4-.4q14,0,22.13,6.23a20.11,20.11,0,0,1,8.17,16.87,21.38,21.38,0,0,1-8.4,17.33q-8.4,6.83-22.8,8c-.9.11-1.4.26-1.5.46q0,.6,1.5.6,15.75,2.7,21.68,11t7.87,30.16q1.2,12.33,8.4,12.33,2.25,0,2.25-.9a.47.47,0,0,0-.15-.3,6.88,6.88,0,0,1-.75-2.7q0-3.15,3.3-3.15C1582.7,702.37,1583.9,703.63,1583.9,706.12ZM1552.85,631q0-21.44-18.6-21.45-4.95,0-6.75,1.35c-1.2.9-1.8,2.51-1.8,4.8v38.1q14.4.16,20.78-5.25T1552.85,631Z" transform="translate(-72.69 237.89)"/><path class="cls-1" d="M1687.1,709.42q0,1.35-2.1,1.35h-38.7c-1.9,0-2.85-.37-2.85-1.13s1.25-1.23,3.75-1.42q7.8-.75,7.8-2.55t-41-48.75v43.23q0,5.24,1.65,6.51t8.85,1.27q1.65,0,1.65,1.5c0,.9-.7,1.34-2.1,1.34h-34.8c-1.5,0-2.25-.42-2.25-1.28s1.85-1.47,5.55-1.57q5.1-.13,6-2.25c.3-.49.45-3.65.45-9.45V612.67q-.15-3.15-8.31-3.15c-2.46,0-3.69-.54-3.69-1.65,0-.9.86-1.35,2.57-1.35a19,19,0,0,1,2,.15c1.62.21,6.1.3,13.46.3,7.86,0,12.84-.09,15-.3,1.11-.09,2.27-.15,3.48-.15,1.81,0,2.72.56,2.72,1.65a1.05,1.05,0,0,1-.84,1.13,35.71,35.71,0,0,1-5.24.37c-2.93.1-4.68.51-5.24,1.2s-.83,3-.83,6.75v36.6l12.75-12.75q29-29.07,29-30.27,0-2-7-1.81-4.5.15-4.5-1.51,0-1.05,2.1-1.2t14.55-.16h8.25c3.5,0,5.5.06,6,.15q1.5.32,1.5,1.5c0,1.11-1.1,1.65-3.31,1.65a46.79,46.79,0,0,0-8.87.32,8.26,8.26,0,0,0-3.91,2.5q-9.72,10.23-29.62,30.68l-4,3.79-1.92,2.13q.9,1.05,7.5,8.11,12.62,13,36.17,41.87,5,6,6.83,7.2t7.28,1.5Q1687.1,708.22,1687.1,709.42Z" transform="translate(-72.69 237.89)"/><text x="-72.69" y="237.89"/><text x="-72.69" y="237.89"/></svg>